<svg xmlns="http://www.w3.org/2000/svg" width="30" height="30" viewBox="0 0 22 22" fill="none">
    <path fillRule="evenodd" clipRule="evenodd" d="M11 22C4.92481 22 0 17.0752 0 11C0 4.92481 4.92481 0 11 0C17.0752 0 22 4.92481 22 11C22 17.0752 17.0752 22 11 22Z" fill="#1786C4"/>
    <path d="M14.7772 13.1434C15.3142 13.0868 15.8109 12.8377 16.1717 12.4441C16.5326 12.0505 16.7322 11.5402 16.7322 11.0112C16.7322 10.4822 16.5326 9.9718 16.1717 9.57821C15.8109 9.18462 15.3142 8.93555 14.7772 8.87888C14.8881 8.60752 14.9156 8.31034 14.8564 8.02386C14.7972 7.73738 14.6539 7.47407 14.444 7.2663L14.3824 7.21145C14.6624 7.10449 14.8304 7.01399 14.8528 6.80282C14.8752 6.59165 14.6736 6.43807 14.3684 6.25432C13.9506 5.9947 13.6295 5.60997 13.4528 5.15733C13.3212 4.82823 13.2344 4.60883 12.9908 4.58689C12.7472 4.56495 12.6184 4.76241 12.4308 5.06134C12.3172 5.23288 12.1806 5.38875 12.0248 5.52482C11.7153 5.27069 11.3399 5.1055 10.9404 5.04755C10.5408 4.98959 10.1327 5.04116 9.76126 5.19651C9.38982 5.35186 9.06955 5.60494 8.83598 5.92769C8.60241 6.25043 8.46466 6.63022 8.438 7.02496C8.17667 6.95113 7.8999 6.94731 7.63655 7.0139C7.3732 7.08049 7.13291 7.21506 6.94073 7.40357C6.74855 7.59208 6.61152 7.82764 6.54392 8.08568C6.47632 8.34372 6.48063 8.6148 6.5564 8.87065C6.04011 8.90628 5.55339 9.11989 5.1826 9.47359C4.81181 9.82729 4.58094 10.2982 4.53093 10.8028C4.48093 11.3073 4.61503 11.813 4.90944 12.2299C5.20385 12.6468 5.63954 12.9481 6.1392 13.0804C6.02615 13.1661 5.90523 13.2414 5.778 13.3053C5.456 13.4643 5.2432 13.5795 5.2432 13.8099C5.2432 14.0402 5.456 14.1582 5.778 14.3172C6.2189 14.5344 6.5771 14.8842 6.8 15.3155C6.9624 15.6336 7.08 15.842 7.3152 15.842C7.5504 15.842 7.6708 15.6336 7.8332 15.3155C7.8528 15.2744 7.8836 15.236 7.9088 15.1948C8.09436 15.1917 8.27768 15.1545 8.4492 15.0851C8.50706 15.6111 8.76135 16.0976 9.1632 16.451C9.56505 16.8045 10.0861 17 10.6262 17C11.1663 17 11.6874 16.8045 12.0892 16.451C12.4911 16.0976 12.7453 15.6111 12.8032 15.0851C13.0801 15.197 13.3847 15.2261 13.6785 15.1687C13.9723 15.1114 14.2422 14.9701 14.4542 14.7628C14.6661 14.5554 14.8107 14.2913 14.8697 14.0036C14.9287 13.7159 14.8994 13.4176 14.7856 13.1462L14.7772 13.1434ZM12.8984 5.35753L12.918 5.32736C12.918 5.32736 12.918 5.3493 12.918 5.36027C13.1472 5.92139 13.5546 6.39542 14.08 6.71232L14.108 6.73151H14.0772C13.4994 6.95101 13.0094 7.34729 12.68 7.86142C12.6744 7.87118 12.6679 7.88037 12.6604 7.88884C12.6604 7.88884 12.6604 7.8669 12.6604 7.85868C12.4365 7.29951 12.0363 6.8249 11.518 6.50389L11.49 6.48469H11.5208C12.0904 6.26157 12.5729 5.86684 12.8984 5.35753ZM7.2984 15.1016V15.0714C7.0215 14.5355 6.57712 14.1003 6.03 13.8291L5.9992 13.8126L6.03 13.7989C6.57483 13.5246 7.01836 13.0902 7.2984 12.5566V12.5264L7.3152 12.5566C7.5962 13.0896 8.04348 13.521 8.592 13.7879L8.6228 13.8016L8.592 13.8181C8.04431 14.0885 7.5997 14.524 7.3236 15.0604L7.2984 15.1016ZM14.0408 14.3721C13.8605 14.5438 13.6189 14.6399 13.3674 14.6399C13.1159 14.6399 12.8743 14.5438 12.694 14.3721C12.6514 14.3357 12.5985 14.3129 12.5424 14.3065C12.4863 14.3001 12.4295 14.3105 12.3795 14.3363C12.3295 14.3621 12.2887 14.4021 12.2624 14.4511C12.236 14.5001 12.2255 14.5557 12.232 14.6107C12.2431 14.6879 12.2487 14.7658 12.2488 14.8438C12.2488 15.2671 12.0771 15.6731 11.7715 15.9724C11.4659 16.2717 11.0514 16.4399 10.6192 16.4399C10.187 16.4399 9.77251 16.2717 9.4669 15.9724C9.16129 15.6731 8.9896 15.2671 8.9896 14.8438C8.98972 14.7658 8.99533 14.6879 9.0064 14.6107C9.01285 14.5556 9.00212 14.5 8.97563 14.451C8.94913 14.4021 8.90813 14.3621 8.858 14.3364H8.8272H8.8412C9.166 14.1774 9.3788 14.0622 9.3788 13.8291C9.3788 13.596 9.166 13.4835 8.8412 13.3244C8.4018 13.1072 8.04544 12.7572 7.8248 12.3262C7.6624 12.0108 7.5448 11.8024 7.3068 11.8024C7.0688 11.8024 6.954 12.0108 6.7916 12.3262C6.73862 12.4284 6.67778 12.5265 6.6096 12.6196C6.38729 12.6097 6.16941 12.5553 5.96939 12.4597C5.76937 12.3642 5.59146 12.2295 5.44661 12.064C5.30177 11.8985 5.19306 11.7058 5.1272 11.4975C5.06133 11.2893 5.03971 11.0701 5.06365 10.8534C5.0876 10.6367 5.1566 10.4271 5.26642 10.2375C5.37624 10.0479 5.52454 9.8824 5.70218 9.7511C5.87982 9.6198 6.08303 9.52553 6.29929 9.4741C6.51555 9.42267 6.74027 9.41517 6.9596 9.45206C7.01481 9.46261 7.07199 9.45663 7.12367 9.4349C7.17536 9.41317 7.21917 9.37669 7.24939 9.33022C7.27961 9.28375 7.29484 9.22945 7.29309 9.17438C7.29135 9.11931 7.27271 9.06603 7.2396 9.02149C7.10949 8.84005 7.049 8.61942 7.0688 8.39854C7.0886 8.17766 7.18743 7.97074 7.34784 7.81428C7.50824 7.65782 7.71992 7.5619 7.94551 7.54342C8.1711 7.52495 8.3961 7.58513 8.5808 7.71332C8.62682 7.74339 8.68089 7.75944 8.7362 7.75944C8.79152 7.75944 8.84559 7.74339 8.8916 7.71332C8.93811 7.68496 8.9751 7.64387 8.99799 7.59512C9.02089 7.54637 9.02868 7.49212 9.0204 7.43908C8.96991 7.13186 9.01236 6.81689 9.14252 6.53303C9.27268 6.24918 9.48485 6.00886 9.75284 5.84174C10.0208 5.67463 10.3329 5.58802 10.6506 5.59263C10.9682 5.59723 11.2776 5.69283 11.5404 5.86763C11.4677 5.90623 11.3929 5.94102 11.3164 5.97185C10.9804 6.10074 10.7564 6.18576 10.734 6.4271C10.7116 6.66844 10.9132 6.79185 11.2184 6.9756C11.6362 7.23522 11.9573 7.61994 12.134 8.07259C12.2656 8.40169 12.3524 8.62109 12.5988 8.64303H12.6352C12.8564 8.64303 12.9796 8.45105 13.1616 8.16583C13.3345 7.90516 13.5592 7.6813 13.8224 7.50764C13.9066 7.54916 13.984 7.60278 14.052 7.6667C14.2273 7.84332 14.3254 8.07994 14.3254 8.32627C14.3254 8.5726 14.2273 8.80922 14.052 8.98584C14.0117 9.02716 13.9856 9.0798 13.9773 9.13638C13.969 9.19296 13.979 9.25066 14.0058 9.30142C14.0326 9.35218 14.075 9.39345 14.127 9.41948C14.1789 9.4455 14.2379 9.45498 14.2956 9.44657C14.5171 9.41518 14.7428 9.42881 14.9586 9.4866C15.1745 9.54439 15.3759 9.64511 15.5503 9.78247C15.7247 9.91984 15.8683 10.0909 15.9722 10.285C16.0761 10.4792 16.1381 10.6922 16.1543 10.9108C16.1705 11.1294 16.1406 11.3489 16.0663 11.5557C15.9921 11.7625 15.8752 11.9521 15.7229 12.1126C15.5705 12.2732 15.3861 12.4013 15.181 12.489C14.9759 12.5767 14.7546 12.6221 14.5308 12.6224C14.4521 12.6225 14.3735 12.617 14.2956 12.6059C14.2394 12.5996 14.1826 12.6101 14.1326 12.6361C14.0826 12.662 14.0418 12.7022 14.0156 12.7513C13.989 12.8021 13.9793 12.8599 13.9878 12.9164C13.9963 12.973 14.0227 13.0255 14.0632 13.0667C14.2325 13.2444 14.3255 13.4791 14.3229 13.7221C14.3203 13.9652 14.2223 14.1979 14.0492 14.3721H14.0408Z" fill="white"/>
    <path d="M7.0128 5.88134C7.01058 5.62166 6.92983 5.36844 6.78074 5.15369C6.63166 4.93894 6.42093 4.77228 6.17518 4.67478C5.92943 4.57729 5.6597 4.55332 5.40005 4.60591C5.1404 4.6585 4.90249 4.78529 4.71638 4.97025C4.53027 5.15522 4.40431 5.39007 4.35441 5.64513C4.30452 5.90018 4.33292 6.164 4.43604 6.40325C4.53916 6.6425 4.71237 6.84644 4.93378 6.98932C5.15519 7.13219 5.41487 7.20758 5.68 7.20596C5.85637 7.20489 6.03079 7.16975 6.19327 7.10257C6.35576 7.03538 6.50312 6.93746 6.62692 6.81443C6.75072 6.69139 6.84853 6.54564 6.91474 6.38553C6.98096 6.22542 7.01428 6.05409 7.0128 5.88134ZM4.8932 5.88134C4.89541 5.73073 4.94296 5.58411 5.02988 5.45985C5.11681 5.33559 5.23924 5.23923 5.38185 5.18283C5.52445 5.12644 5.68087 5.11252 5.83151 5.14283C5.98216 5.17314 6.12031 5.24632 6.22867 5.35321C6.33703 5.4601 6.41076 5.59593 6.44064 5.74369C6.47052 5.89145 6.4552 6.04456 6.39661 6.18383C6.33803 6.3231 6.23877 6.44233 6.1113 6.52659C5.98382 6.61084 5.83379 6.65637 5.68 6.65747C5.576 6.65821 5.47288 6.6386 5.37672 6.59979C5.28055 6.56098 5.19326 6.50375 5.11998 6.43146C5.04669 6.35917 4.98888 6.27327 4.94994 6.1788C4.911 6.08434 4.89171 5.98321 4.8932 5.88134Z" fill="white"/>
    <path d="M17.3336 5.09699C17.3336 4.88003 17.2679 4.66794 17.1448 4.48754C17.0218 4.30714 16.8469 4.16653 16.6422 4.0835C16.4376 4.00048 16.2124 3.97875 15.9951 4.02108C15.7778 4.06341 15.5783 4.16789 15.4216 4.3213C15.265 4.47472 15.1583 4.67019 15.1151 4.88298C15.0719 5.09578 15.0941 5.31635 15.1789 5.5168C15.2636 5.71724 15.4072 5.88857 15.5914 6.00911C15.7755 6.12965 15.9921 6.19399 16.2136 6.19399C16.3607 6.19399 16.5063 6.16561 16.6422 6.11048C16.7781 6.05536 16.9016 5.97455 17.0056 5.87269C17.1096 5.77082 17.1921 5.64989 17.2483 5.5168C17.3046 5.3837 17.3336 5.24105 17.3336 5.09699ZM15.6536 5.09699C15.6536 4.98851 15.6864 4.88247 15.748 4.79227C15.8095 4.70207 15.897 4.63176 15.9993 4.59025C16.1016 4.54873 16.2142 4.53787 16.3229 4.55904C16.4315 4.5802 16.5313 4.63244 16.6096 4.70915C16.6879 4.78586 16.7412 4.88359 16.7628 4.98999C16.7844 5.09639 16.7734 5.20667 16.731 5.30689C16.6886 5.40712 16.6168 5.49278 16.5247 5.55305C16.4326 5.61332 16.3244 5.64549 16.2136 5.64549C16.1396 5.64622 16.0662 5.63256 15.9976 5.60532C15.929 5.57808 15.8666 5.5378 15.814 5.48679C15.7614 5.43579 15.7196 5.37508 15.6912 5.30817C15.6627 5.24126 15.648 5.16949 15.648 5.09699H15.6536Z" fill="white"/>
    <path d="M18 15.3923C18 15.1753 17.9343 14.9632 17.8112 14.7828C17.6882 14.6024 17.5133 14.4618 17.3086 14.3788C17.104 14.2958 16.8788 14.274 16.6615 14.3164C16.4442 14.3587 16.2447 14.4632 16.088 14.6166C15.9314 14.77 15.8247 14.9655 15.7815 15.1783C15.7383 15.3911 15.7605 15.6116 15.8453 15.8121C15.93 16.0125 16.0736 16.1839 16.2578 16.3044C16.4419 16.4249 16.6585 16.4893 16.88 16.4893C17.177 16.4893 17.4619 16.3737 17.672 16.168C17.882 15.9622 18 15.6832 18 15.3923ZM16.32 15.3923C16.32 15.2838 16.3528 15.1778 16.4144 15.0876C16.4759 14.9974 16.5634 14.927 16.6657 14.8855C16.768 14.844 16.8806 14.8332 16.9893 14.8543C17.0979 14.8755 17.1977 14.9277 17.276 15.0044C17.3543 15.0811 17.4076 15.1789 17.4292 15.2853C17.4508 15.3917 17.4398 15.502 17.3974 15.6022C17.355 15.7024 17.2832 15.7881 17.1911 15.8483C17.099 15.9086 16.9908 15.9408 16.88 15.9408C16.7315 15.9408 16.589 15.883 16.484 15.7801C16.379 15.6773 16.32 15.5378 16.32 15.3923Z" fill="white"/>
    <path d="M4.9716 16.8924C5.16377 16.8924 5.35162 16.8366 5.5114 16.732C5.67117 16.6275 5.79571 16.4788 5.86924 16.305C5.94278 16.1311 5.96202 15.9397 5.92453 15.7551C5.88705 15.5705 5.79451 15.401 5.65863 15.2679C5.52275 15.1348 5.34963 15.0441 5.16115 15.0074C4.97268 14.9707 4.77733 14.9895 4.59979 15.0616C4.42225 15.1336 4.27051 15.2556 4.16375 15.4121C4.05699 15.5686 4 15.7526 4 15.9408C3.99963 16.0658 4.02451 16.1898 4.07321 16.3054C4.12191 16.421 4.19346 16.5261 4.28375 16.6145C4.37405 16.7029 4.48131 16.773 4.59935 16.8207C4.7174 16.8684 4.84391 16.8928 4.9716 16.8924ZM4.9716 15.5404C5.05313 15.5404 5.13282 15.5641 5.20056 15.6085C5.26831 15.6529 5.32106 15.7161 5.35213 15.7899C5.3832 15.8637 5.39119 15.9449 5.37508 16.0232C5.35897 16.1015 5.31949 16.1733 5.26164 16.2296C5.2038 16.2858 5.1302 16.324 5.05017 16.3392C4.97015 16.3545 4.8873 16.3461 4.81214 16.3152C4.73698 16.2842 4.67289 16.2322 4.62801 16.1655C4.58312 16.0988 4.55945 16.0206 4.56 15.9408C4.56074 15.8343 4.60443 15.7325 4.68154 15.6575C4.75865 15.5825 4.86292 15.5404 4.9716 15.5404Z" fill="white"/>
</svg>