<svg xmlns="http://www.w3.org/2000/svg" width="103" height="101" viewBox="0 0 103 101" fill="none">
<rect width="100%" height="100%" fill="white"/>
  <g filter="url(#filter0_d_300_2542)">
    <path fill-rule="evenodd" clip-rule="evenodd" d="M12.144 27.5641H87.7926V10.2108H12.144V27.5641ZM87.7926 28.9132H12.144V80.0475H87.7926V28.9132ZM77.0786 17.7555C76.5962 17.2729 75.9931 16.911 75.3242 16.719H75.3189L75.2803 16.7081H75.275L75.2475 16.7026L75.2257 16.6971L75.2094 16.6917L75.1762 16.6864L75.1707 16.6808L75.1378 16.6753L75.1268 16.6699L75.028 16.6482H75.0227L74.9898 16.6426H74.9786L74.9293 16.6316L74.9131 16.6262L74.8799 16.6207H74.8743L74.7975 16.6096H74.7811L74.7593 16.6042L74.7318 16.5987H74.7208L74.6824 16.5933H74.644L74.6276 16.588H74.6056L74.5781 16.5825H74.5233L74.4903 16.5769H74.4246L74.4135 16.5716H74.2928L74.2653 16.5662H74.161L74.1335 16.5716H74.0186L74.0075 16.5769H73.9361L73.9032 16.5825H73.8482L73.8211 16.588H73.7991L73.7825 16.5933H73.7441L73.7057 16.5987H73.6945L73.6674 16.6042L73.6454 16.6096H73.629L73.5958 16.6149H73.5906L73.552 16.6205H73.5467L73.5192 16.626L73.4972 16.6314L73.481 16.6367L73.4479 16.6423H73.4424L73.4042 16.6478H73.3985L73.3656 16.6587H73.3492L73.3274 16.6642L73.2997 16.6696L73.2946 16.6749L73.256 16.6805L73.2506 16.686L73.2178 16.6914L73.201 16.6967L73.1792 16.7023L73.1519 16.7078H73.1464L73.1082 16.7187H73.1024L73.0753 16.7297L73.0587 16.7351L73.0369 16.7406L73.0096 16.7517H72.9985L72.9657 16.7628H72.96L72.9269 16.7737L72.916 16.7792L72.8941 16.7847L72.8669 16.7956L72.8612 16.8012L72.823 16.8121L72.79 16.8233L72.7734 16.8287L72.7295 16.8508H72.7186L72.6855 16.8672H72.6802L72.6363 16.8838L72.6145 16.8947L72.4113 16.9879L72.2526 17.0701L72.2413 17.0813L72.2195 17.0922L72.1976 17.1034L72.1208 17.1472L72.1151 17.1525L72.0001 17.2238L71.989 17.2291L71.9396 17.2675L71.9067 17.2841L71.8737 17.3061L71.8684 17.3114L71.8464 17.3279L71.83 17.3445L71.8135 17.3555L71.7916 17.372L71.786 17.3775L71.753 17.3995L71.7259 17.4212L71.7148 17.4323L71.6928 17.4434L71.6762 17.4598L71.6652 17.4709L71.638 17.4928H71.6325L71.6052 17.5148L71.5995 17.5202L71.5777 17.5421L71.5666 17.5532L71.5502 17.5641L71.5284 17.586L71.5227 17.5916L71.4898 17.6189L71.4627 17.6409L71.457 17.6519L71.4352 17.6684L71.4188 17.6848L71.4077 17.696L71.3858 17.7178H71.3802L71.3529 17.7451V17.7507L71.3311 17.7726L71.32 17.7835L71.3033 17.8001L71.2815 17.8219L71.2761 17.8274L71.2486 17.8549L71.2267 17.8821L71.2158 17.8933L71.1994 17.9097L71.1828 17.9262L71.1717 17.9426L71.1497 17.9646V17.9701L71.1226 17.9974V18.0028L71.1006 18.0247L71.0896 18.0412L71.0785 18.0578L71.0619 18.0742L71.0508 18.0853L71.0288 18.1126L71.0069 18.1456L70.996 18.1511L70.9849 18.1729L70.9687 18.1895L70.9574 18.2059L70.9408 18.2333H70.9355L70.9137 18.2663V18.2717L70.8917 18.299L70.8862 18.31L70.8699 18.3266L70.8587 18.3486L70.8092 18.4254L70.8037 18.4307L70.7874 18.4527L70.7764 18.4745L70.7653 18.4857L70.7487 18.5129V18.5184L70.7267 18.5514V18.5568L70.7103 18.5843L70.6994 18.6007L70.6555 18.683C70.3429 19.2588 70.162 19.9168 70.162 20.6184C70.162 21.7372 70.6169 22.7515 71.3463 23.4807C72.081 24.2098 73.0955 24.6649 74.2141 24.6649C75.3271 24.6649 76.3414 24.2098 77.0759 23.4807C77.8053 22.7515 78.2606 21.737 78.2606 20.6184C78.2606 20.103 78.1674 19.6097 77.9919 19.1601L77.9865 19.1545L77.9645 19.0997L77.9535 19.0612L77.9369 19.0281L77.9313 19.0172L77.9203 18.9953L77.9149 18.9733L77.9094 18.9569L77.8931 18.9294V18.924L77.8763 18.891L77.8712 18.8857L77.8601 18.8583L77.8544 18.8419L77.8463 18.8244L77.8353 18.7971L77.8299 18.7916L77.8133 18.7532L77.7969 18.7203L77.7914 18.7091L77.7751 18.6873L77.7694 18.6707L77.7583 18.6543L77.7421 18.627V18.6216L77.7201 18.5886L77.7035 18.5612L77.6924 18.5448L77.6814 18.5282L77.6703 18.5009L77.6651 18.4954L77.6432 18.4625L77.6046 18.4022L77.5935 18.3802L77.5825 18.3691L77.5662 18.3418L77.5605 18.3363L77.5387 18.309V18.3036L77.5223 18.2761L77.5112 18.2652L77.5002 18.2488L77.4835 18.2268L77.4784 18.2156L77.4289 18.1554L77.4236 18.1501L77.407 18.1281L77.3959 18.1115L77.215 17.8978L77.2095 17.8924L77.1931 17.8705L77.1822 17.8592L77.1654 17.8428L77.1382 17.8155L77.1163 17.7882L77.1052 17.7826L77.0786 17.7555ZM79.5077 19.5593C79.5736 19.8991 79.6121 20.2554 79.6121 20.6174C79.6121 22.1032 79.0033 23.4521 78.0274 24.4282C77.0515 25.4041 75.7028 26.0128 74.2167 26.0128C72.7307 26.0128 71.382 25.4041 70.4005 24.4282C69.4244 23.4467 68.8213 22.0977 68.8213 20.6174C68.8213 20.2556 68.8544 19.8993 68.9258 19.5593H16.574C16.2067 19.5593 15.8998 19.2577 15.8998 18.8848V12.3547C15.8998 11.9817 16.2069 11.6802 16.574 11.6802H83.3621C83.7349 11.6802 84.0366 11.9817 84.0366 12.3547V18.8848C84.0366 19.2577 83.7349 19.5593 83.3621 19.5593H79.5077ZM76.5251 15.7378C77.0845 16.0063 77.5941 16.3627 78.0274 16.8013L78.0604 16.8342L78.0715 16.8454L78.132 16.906L78.1593 16.9388L78.2031 16.9827L78.2199 17.0047L78.247 17.0318L78.2745 17.0649L78.2856 17.0815L78.3623 17.1636L78.3677 17.1747L78.3897 17.1966L78.4114 17.224L78.4172 17.2293L78.4389 17.2677L78.45 17.2789L78.4664 17.3009L78.4884 17.328L78.4939 17.3336L78.5211 17.3664L78.5268 17.3777L78.5486 17.405L78.565 17.4323L78.5705 17.4379L78.5977 17.4707L78.6034 17.4818L78.6253 17.5091L78.6416 17.5311L78.6471 17.5421L78.6744 17.5805V17.5859L78.6962 17.6134L78.713 17.6407L78.7182 17.6517L78.7457 17.6846V17.6958L78.7676 17.723L78.7841 17.7449L78.7896 17.7614L78.8116 17.7946L78.8167 17.7999L78.8335 17.833L78.8498 17.8549L78.8553 17.8714L78.8773 17.9097H78.8826L78.8992 17.9426L78.9155 17.9701L78.9212 17.981L78.943 18.0194V18.0249L78.9649 18.0579L78.976 18.0797L78.9871 18.0963L79.0033 18.1347L79.009 18.1401L79.0253 18.1731L79.0363 18.1951L79.0419 18.2115H82.6881V13.0289H17.2485V18.2104H69.3862L69.4025 18.172L69.408 18.161L69.4244 18.1336L69.4412 18.1063L69.4464 18.0952L69.463 18.0569L69.4684 18.0458L69.485 18.0183L69.5012 17.9912L69.5068 17.9799L69.5287 17.9415L69.5341 17.9362L69.5507 17.9089L69.5671 17.8758L69.5726 17.8705L69.6328 17.7662L69.6385 17.7607L69.6603 17.7223L69.6714 17.7114L69.6878 17.6839L69.7042 17.6567L69.7096 17.6512C69.7646 17.5634 69.8249 17.4812 69.8851 17.4045L69.8906 17.3934L69.9288 17.3386L69.9346 17.333C69.9945 17.2507 70.0604 17.174 70.1261 17.0974L70.1372 17.0863L70.1538 17.0643L70.1758 17.037L70.1811 17.0315L70.2086 17.0043L70.2195 16.9931L70.2965 16.9056L70.3075 16.8944C70.5707 16.6203 70.8667 16.3682 71.1794 16.1543C71.344 16.0445 71.5138 15.9404 71.6891 15.847L71.7057 15.8417L71.733 15.8251L71.7605 15.8086L71.7768 15.8033L71.8205 15.7813L71.9521 15.7156L71.996 15.6992L72.0398 15.6772L72.0565 15.6717L72.0894 15.6553L72.1165 15.6442L72.1333 15.6388L72.1772 15.6169H72.1824L72.2263 15.6005L72.2428 15.5949L72.2701 15.5839L72.3031 15.5673L72.3197 15.5617L72.3635 15.5453L72.4126 15.5289L72.4238 15.5233L72.4567 15.5124L72.4897 15.5012L72.5063 15.4958L72.5502 15.4792H72.5554L72.6048 15.4683L72.6159 15.4628L72.6489 15.4519L72.6761 15.4407L72.698 15.4353L72.7418 15.4242H72.7475L72.7966 15.4078H72.8075L72.8405 15.3967L72.8682 15.3914L72.89 15.3859L72.9339 15.3748L72.9393 15.3694L72.9885 15.3584H72.9996L73.038 15.3473L73.0655 15.3418L73.0873 15.3364L73.1312 15.331L73.1366 15.3255L73.1858 15.3146H73.1969L73.2408 15.3091L73.2628 15.3035L73.2899 15.2982L73.3285 15.2928H73.3396L73.3886 15.2816H73.3942L73.4381 15.2762L73.4652 15.2709L73.4927 15.2653L73.5311 15.26H73.542L73.5915 15.2546H73.5967L73.6406 15.2491H73.6625L73.6954 15.2436H73.7341L73.745 15.2382H73.8L73.8491 15.2328H73.8711L73.9041 15.2273H73.9537L74.0086 15.2218H74.4256L74.4751 15.2273H74.5299L74.5629 15.2328H74.5792L74.6286 15.2382H74.6833L74.6997 15.2436H74.7383L74.7656 15.2491H74.7874L74.8368 15.2546L74.8918 15.26L74.9027 15.2653H74.9411L74.9686 15.2709L74.9905 15.2762L75.0343 15.2816H75.0396L75.0891 15.2928H75.1053L75.1439 15.2982L75.1711 15.3035L75.193 15.3091L75.2369 15.3146H75.2425L75.2916 15.3255L75.3026 15.331L75.3412 15.3364L75.3683 15.3418L75.4342 15.3584H75.4398L75.4889 15.3694L75.4999 15.3748L75.5385 15.3859L75.5656 15.3914L75.5876 15.3967L75.6262 15.4078H75.6372L75.6863 15.4242H75.6919L75.7303 15.4353L75.7577 15.4407L75.7797 15.4519L75.9222 15.4957L75.9441 15.501L75.9715 15.5123L76.0098 15.5232L76.0209 15.5287L76.0648 15.5451H76.0702L76.1139 15.5615L76.1907 15.5947L76.2018 15.6003L76.2512 15.6167H76.2564L76.4925 15.7262L76.5251 15.7378ZM18.9648 23.2659C18.7838 23.0848 18.5315 22.9752 18.2521 22.9752C17.9889 22.9752 17.7477 23.0739 17.5722 23.2384L17.5445 23.2659C17.3638 23.4521 17.2485 23.699 17.2485 23.9786C17.2485 24.258 17.3638 24.5105 17.5392 24.6858C17.7256 24.8722 17.9779 24.9818 18.2519 24.9818C18.5313 24.9818 18.7836 24.8722 18.9647 24.6858C19.1454 24.5105 19.2607 24.258 19.2607 23.9786C19.2609 23.699 19.1455 23.4521 18.9648 23.2659ZM18.2521 21.6263C18.9043 21.6263 19.4912 21.8897 19.9188 22.3171C20.3407 22.7393 20.6096 23.3318 20.6096 23.9788C20.6096 24.6257 20.3407 25.2122 19.9188 25.64C19.491 26.0678 18.9043 26.3309 18.2521 26.3309C17.6104 26.3309 17.0184 26.0676 16.5961 25.64C16.1683 25.2122 15.9 24.6257 15.9 23.9788C15.9 23.3318 16.1685 22.7395 16.5909 22.3171L16.64 22.268C17.0621 21.8675 17.6324 21.6263 18.2521 21.6263ZM24.9414 23.2659C24.7659 23.0848 24.5136 22.9752 24.234 22.9752C23.9708 22.9752 23.7296 23.0739 23.5541 23.2384L23.5265 23.2659C23.3401 23.4521 23.2304 23.699 23.2304 23.9786C23.2304 24.258 23.3401 24.5105 23.5211 24.6858C23.702 24.8722 23.9541 24.9818 24.2338 24.9818C24.5136 24.9818 24.7657 24.8722 24.9412 24.6912C25.1276 24.5103 25.2373 24.258 25.2373 23.9786C25.2374 23.699 25.1276 23.4521 24.9414 23.2659ZM24.2338 21.6263C24.8809 21.6263 25.4676 21.8897 25.8954 22.3171C26.323 22.7393 26.5862 23.3318 26.5862 23.9788C26.5862 24.6257 26.323 25.2122 25.8954 25.64C25.4676 26.0678 24.8809 26.3309 24.2338 26.3309C23.5868 26.3309 23.0001 26.0676 22.5725 25.64C22.1447 25.2122 21.8815 24.6257 21.8815 23.9788C21.8815 23.3318 22.1447 22.7395 22.5725 22.3171L22.622 22.268C23.044 21.8675 23.6141 21.6263 24.2338 21.6263ZM79.6778 36.359C79.4859 36.1671 79.2174 36.0464 78.9214 36.0464C78.6305 36.0464 78.362 36.1671 78.17 36.359C77.9783 36.5454 77.8572 36.8141 77.8572 37.1101C77.8572 37.4008 77.9783 37.6693 78.17 37.8614C78.362 38.0587 78.6305 38.1739 78.9214 38.1739C79.2065 38.1739 79.4586 38.0698 79.645 37.8943L79.678 37.8614C79.8698 37.6693 79.9905 37.4008 79.9905 37.1101C79.9905 36.8307 79.8808 36.5729 79.7052 36.3863L79.6778 36.359ZM78.9214 34.6977C79.5902 34.6977 80.1933 34.9662 80.632 35.405L80.6757 35.4541C81.0869 35.8875 81.3337 36.4686 81.3337 37.11C81.3337 37.7736 81.0649 38.3767 80.632 38.8154L80.5825 38.8591C80.1494 39.2705 79.5627 39.5226 78.9214 39.5226C78.2632 39.5226 77.6599 39.2485 77.2214 38.8154C76.7828 38.3767 76.5144 37.7736 76.5144 37.11C76.5144 36.4465 76.7828 35.8434 77.2214 35.4049C77.6546 34.9662 78.2577 34.6977 78.9214 34.6977ZM73.8602 36.359C73.6684 36.1671 73.3995 36.0464 73.1092 36.0464C72.8241 36.0464 72.572 36.1562 72.3799 36.3317L72.3527 36.359C72.1662 36.5509 72.0455 36.8141 72.0455 37.1101C72.0455 37.4008 72.1662 37.6693 72.3527 37.8614C72.5443 38.0532 72.8132 38.1739 73.1092 38.1739C73.3887 38.1739 73.6465 38.0698 73.833 37.8943L73.8602 37.8614C74.0523 37.6693 74.173 37.4008 74.173 37.1101C74.173 36.8307 74.0685 36.5729 73.8932 36.3863L73.8602 36.359ZM73.1092 34.6977C73.7725 34.6977 74.3756 34.9662 74.8147 35.405L74.8584 35.4541C75.2694 35.8875 75.5217 36.4686 75.5217 37.11C75.5217 37.7736 75.2475 38.3767 74.8147 38.8154L74.7652 38.8591C74.3317 39.2705 73.7452 39.5226 73.1094 39.5226C72.4458 39.5226 71.8426 39.2485 71.404 38.8154C70.9655 38.3767 70.6968 37.7736 70.6968 37.11C70.6968 36.4465 70.9655 35.838 71.404 35.4049L71.4479 35.3609C71.881 34.9501 72.4675 34.6977 73.1092 34.6977ZM68.0429 36.359C67.8511 36.1671 67.5879 36.0464 67.2919 36.0464C67.0013 36.0464 66.7324 36.1671 66.5406 36.359C66.3485 36.5509 66.2278 36.8141 66.2278 37.1101C66.2278 37.4008 66.3485 37.6693 66.5406 37.8614C66.7324 38.0587 66.9955 38.1739 67.2919 38.1739C67.5879 38.1739 67.8565 38.0587 68.0429 37.8666C68.2402 37.6693 68.3555 37.4062 68.3555 37.1101C68.3555 36.8307 68.2512 36.5729 68.0757 36.3863L68.0429 36.359ZM67.2919 34.6977C67.9607 34.6977 68.5639 34.9662 68.997 35.405L69.0408 35.4541C69.4521 35.8875 69.7042 36.4686 69.7042 37.11C69.7042 37.7736 69.4355 38.3767 68.997 38.8099C68.5583 39.2539 67.9552 39.5226 67.2919 39.5226C66.6283 39.5226 66.0252 39.2485 65.5865 38.8154C65.148 38.3767 64.8791 37.7736 64.8791 37.11C64.8791 36.4465 65.148 35.838 65.5865 35.4049C66.0252 34.9662 66.6283 34.6977 67.2919 34.6977ZM58.4147 40.1477H20.3079C19.9351 40.1477 19.6337 39.8463 19.6337 39.4789V34.6321C19.6337 34.2645 19.9351 33.9633 20.3079 33.9633H58.4147C58.7877 33.9633 59.0889 34.2647 59.0889 34.6321V39.4789C59.0889 39.8461 58.7877 40.1477 58.4147 40.1477ZM19.864 45.7459C19.864 45.3731 20.1654 45.0714 20.5328 45.0714C20.9056 45.0714 21.2074 45.3731 21.2074 45.7459V51.2452H22.3531C22.7205 51.2452 23.0276 51.5468 23.0276 51.9198C23.0276 52.2926 22.7205 52.594 22.3531 52.594H21.2074V74.4438C21.2074 74.8166 20.9056 75.1181 20.5328 75.1181C20.1654 75.1181 19.864 74.8166 19.864 74.4438V52.5941H18.7179C18.3451 52.5941 18.0437 52.2928 18.0437 51.92C18.0437 51.547 18.3451 51.2454 18.7179 51.2454H19.864V45.7459ZM27.8361 74.4439C27.8361 74.8167 27.5344 75.1183 27.1616 75.1183C26.7943 75.1183 26.4874 74.8167 26.4874 74.4439V68.9444H25.3471C24.9743 68.9444 24.6725 68.6429 24.6725 68.2754C24.6725 67.9026 24.9743 67.6013 25.3471 67.6013H26.4874V45.7459C26.4874 45.3731 26.7945 45.0714 27.1616 45.0714C27.5344 45.0714 27.8361 45.3731 27.8361 45.7459V67.6011H28.9822C29.3495 67.6011 29.6564 67.9025 29.6564 68.2753C29.6564 68.6427 29.3495 68.9443 28.9822 68.9443H27.8361V74.4439ZM33.1162 45.7459C33.1162 45.3731 33.4233 45.0714 33.7907 45.0714C34.1635 45.0714 34.4649 45.3731 34.4649 45.7459V51.2452H35.611C35.9784 51.2452 36.2798 51.5468 36.2798 51.9198C36.2798 52.2926 35.9784 52.594 35.611 52.594H34.4649V74.4438C34.4649 74.8166 34.1635 75.1181 33.7907 75.1181C33.4233 75.1181 33.1162 74.8166 33.1162 74.4438V52.5941H31.9758C31.6031 52.5941 31.3013 52.2928 31.3013 51.92C31.3013 51.547 31.6031 51.2454 31.9758 51.2454H33.1162V45.7459ZM39.7453 45.7459C39.7453 45.3731 40.0523 45.0714 40.4195 45.0714C40.7923 45.0714 41.0941 45.3731 41.0941 45.7459V60.4842H42.2344C42.6072 60.4842 42.909 60.7857 42.909 61.1585C42.909 61.5313 42.6072 61.8329 42.2344 61.8329H41.0941V74.4438C41.0941 74.8166 40.7923 75.1181 40.4195 75.1181C40.0523 75.1181 39.7453 74.8166 39.7453 74.4438V61.8329H38.6046C38.2318 61.8329 37.9305 61.5313 37.9305 61.1585C37.9305 60.7857 38.2318 60.4842 38.6046 60.4842H39.7453V45.7459ZM46.3741 45.7459C46.3741 45.3731 46.6759 45.0714 47.0487 45.0714C47.4215 45.0714 47.7228 45.3731 47.7228 45.7459V65.1613H48.8632C49.236 65.1613 49.5377 65.4627 49.5377 65.8356C49.5377 66.2084 49.236 66.5098 48.8632 66.5098H47.7228V74.4439C47.7228 74.8167 47.4215 75.1183 47.0487 75.1183C46.6759 75.1183 46.3741 74.8167 46.3741 74.4439V66.5098H45.2338C44.861 66.5098 44.5592 66.2084 44.5592 65.8356C44.5592 65.4627 44.861 65.1613 45.2338 65.1613H46.3741V45.7459ZM52.2134 45.7459C52.2134 45.3731 52.515 45.0714 52.8879 45.0714C53.2607 45.0714 53.5623 45.3731 53.5623 45.7459V51.2452H54.7028C55.0756 51.2452 55.377 51.5468 55.377 51.9198C55.377 52.2926 55.0756 52.594 54.7028 52.594H53.5623V74.4438C53.5623 74.8166 53.2607 75.1181 52.8879 75.1181C52.515 75.1181 52.2134 74.8166 52.2134 74.4438V52.5941H51.073C50.7002 52.5941 50.3989 52.2928 50.3989 51.92C50.3989 51.547 50.7002 51.2454 51.073 51.2454H52.2134V45.7459ZM60.1911 74.4439C60.1911 74.8167 59.8895 75.1183 59.5167 75.1183C59.1439 75.1183 58.8425 74.8167 58.8425 74.4439V68.9444H57.702C57.3292 68.9444 57.0276 68.6429 57.0276 68.2754C57.0276 67.9026 57.3292 67.6013 57.702 67.6013H58.8425V45.7459C58.8425 45.3731 59.1439 45.0714 59.5167 45.0714C59.8895 45.0714 60.1911 45.3731 60.1911 45.7459V67.6011H61.3316C61.7046 67.6011 62.0061 67.9025 62.0061 68.2753C62.0061 68.6427 61.7046 68.9443 61.3316 68.9443H60.1911V74.4439ZM65.4711 45.7459C65.4711 45.3731 65.7729 45.0714 66.1457 45.0714C66.5185 45.0714 66.8199 45.3731 66.8199 45.7459V51.2452H67.9606C68.3336 51.2452 68.6348 51.5468 68.6348 51.9198C68.6348 52.2926 68.3334 52.594 67.9606 52.594H66.8199V74.4438C66.8199 74.8166 66.5185 75.1181 66.1457 75.1181C65.7729 75.1181 65.4711 74.8166 65.4711 74.4438V52.5941H64.3306C63.9578 52.5941 63.6562 52.2928 63.6562 51.92C63.6562 51.547 63.9578 51.2454 64.3306 51.2454H65.4711V45.7459ZM72.1003 45.7459C72.1003 45.3731 72.4017 45.0714 72.7745 45.0714C73.1473 45.0714 73.4488 45.3731 73.4488 45.7459V60.4842H74.5894C74.9623 60.4842 75.2639 60.7857 75.2639 61.1585C75.2639 61.5313 74.9623 61.8329 74.5894 61.8329H73.4488V74.4438C73.4488 74.8166 73.1473 75.1181 72.7745 75.1181C72.4017 75.1181 72.1003 74.8166 72.1003 74.4438V61.8329H70.9597C70.5866 61.8329 70.2854 61.5313 70.2854 61.1585C70.2854 60.7857 70.5868 60.4842 70.9597 60.4842H72.1003V45.7459ZM78.7291 45.7459C78.7291 45.3731 79.0308 45.0714 79.4036 45.0714C79.7764 45.0714 80.0778 45.3731 80.0778 45.7459V65.1613H81.2181C81.5913 65.1613 81.8927 65.4627 81.8927 65.8356C81.8927 66.2084 81.5913 66.5098 81.2181 66.5098H80.0778V74.4439C80.0778 74.8167 79.7764 75.1183 79.4036 75.1183C79.0308 75.1183 78.7291 74.8167 78.7291 74.4439V66.5098H77.5887C77.2157 66.5098 76.9142 66.2084 76.9142 65.8356C76.9142 65.4627 77.2157 65.1613 77.5887 65.1613H78.7291V45.7459ZM12.7744 84.582C12.4016 84.582 12.1002 84.2803 12.1002 83.9075C12.1002 83.5347 12.4016 83.2331 12.7744 83.2331H66.08C66.4529 83.2331 66.7543 83.5347 66.7543 83.9075C66.7543 84.2803 66.4529 84.582 66.08 84.582H12.7744ZM43.989 87C43.6162 87 43.3148 86.6983 43.3148 86.3255C43.3148 85.958 43.6162 85.6566 43.989 85.6566H80.8784C81.2512 85.6566 81.5527 85.958 81.5527 86.3255C81.5527 86.6983 81.2512 87 80.8784 87H43.989ZM84.6562 87C84.2834 87 83.982 86.6983 83.982 86.3255C83.982 85.958 84.2834 85.6566 84.6562 85.6566H89.2676C89.6404 85.6566 89.9418 85.958 89.9418 86.3255C89.9418 86.6983 89.6404 87 89.2676 87H84.6562ZM10.6745 86.9286C10.3017 86.9286 10 86.6272 10 86.2542C10 85.8814 10.3017 85.58 10.6745 85.58H28.1541C28.5269 85.58 28.8287 85.8814 28.8287 86.2542C28.8287 86.6272 28.5269 86.9286 28.1541 86.9286H10.6745ZM92.1296 25.3766C92.1296 25.7494 91.8279 26.051 91.4551 26.051C91.0823 26.051 90.7809 25.7494 90.7809 25.3766V7.34872H63.2617C62.8889 7.34872 62.5875 7.04716 62.5875 6.67436C62.5875 6.30156 62.8889 6 63.2617 6H91.4551C91.8279 6 92.1296 6.30156 92.1296 6.67436V25.3766ZM20.9824 38.8043H57.7402V35.3063H20.9824V38.8043Z" fill="black"/>
  </g>
  <defs>
    <filter id="filter0_d_300_2542" x="0" y="0" width="102.13" height="101" filterUnits="userSpaceOnUse" color-interpolation-filters="sRGB">
      <feFlood flood-opacity="0" result="BackgroundImageFix"/>
      <feColorMatrix in="SourceAlpha" type="matrix" values="0 0 0 0 0 0 0 0 0 0 0 0 0 0 0 0 0 0 127 0" result="hardAlpha"/>
      <feOffset dy="4"/>
      <feGaussianBlur stdDeviation="5"/>
      <feComposite in2="hardAlpha" operator="out"/>
      <feColorMatrix type="matrix" values="0 0 0 0 1 0 0 0 0 0.839216 0 0 0 0 0 0 0 0 1 0"/>
      <feBlend mode="normal" in2="BackgroundImageFix" result="effect1_dropShadow_300_2542"/>
      <feBlend mode="normal" in="SourceGraphic" in2="effect1_dropShadow_300_2542" result="shape"/>
    </filter>
  </defs>
</svg>