<svg xmlns="http://www.w3.org/2000/svg" width="112" height="112" viewBox="0 0 112 112" fill="none">
<rect width="100%" height="100%" fill="white"/>
  <g filter="url(#filter0_d_300_2549)">
    <path d="M51 41C51.6 41 52 41.4 52 42C52 44.2 50.2 46 48 46C45.8 46 44 44.2 44 42C44 41.4 44.4 41 45 41C45.6 41 46 41.4 46 42C46 43.1 46.9 44 48 44C49.1 44 50 43.1 50 42C50 41.4 50.4 41 51 41Z" fill="black"/>
    <path d="M61.921 54.6428C62.1224 55.1351 61.921 55.7258 61.5183 55.9228C61.0149 56.1197 60.4109 55.9228 60.2095 55.5289C59.4041 53.9537 57.7933 53.0676 55.9811 53.0676C54.1689 53.0676 52.5581 53.9537 51.8534 55.4305C51.652 55.9228 51.048 56.1197 50.5446 55.8243C50.0412 55.6274 49.8399 55.0367 50.1419 54.5444C51.2493 52.3784 53.5649 51 56.0818 51C58.5987 51 60.8136 52.4768 61.921 54.6428Z" fill="black"/>
    <path d="M61 41C61.6 41 62 41.4 62 42C62 43.1 62.9 44 64 44C65.1 44 66 43.1 66 42C66 41.4 66.4 41 67 41C67.6 41 68 41.4 68 42C68 44.2 66.2 46 64 46C61.8 46 60 44.2 60 42C60 41.4 60.4 41 61 41Z" fill="black"/>
    <path d="M101 91.2C100.2 85.2 95.9 80.2 90 78.7L84 77C83.9 77 83.9 77 83.8 77L83.7 76.7C83.6 76.4 83.4 76.1 83.1 76L70 71.7C70.1 71.4 70 71.2 69.9 70.9L66.9 65.7C66.6 65.2 66 65.1 65.5 65.3L64 66.2V62C69.4 59.1 73 53.5 73 47H74C76.8 47 79 44.8 79 42C79 40.7 78.5 39.5 77.7 38.6C79 38 80 36.6 80 35C80 33.1 78.7 31.6 77 31.1V28.1C77 22.8 74.8 17.8 71 14.2V11C71 9.3 69.7 8 68 8C66.5 8 65.3 9 65.1 10.4C63.5 9.7 61.8 9.3 60 9.1V9C60 7.3 58.7 6 57 6H55C53.3 6 52 7.3 52 9V9.1C50.2 9.3 48.6 9.7 46.9 10.4C46.7 9 45.5 8 44 8C42.3 8 41 9.3 41 11V14.2C37.2 17.8 35 22.8 35 28.1V31.1C33.3 31.5 32 33.1 32 35C32 36.6 33 38 34.3 38.6C33.5 39.5 33 40.7 33 42C33 44.8 35.2 47 38 47H39C39 53.5 42.7 59.1 48 62V66.2L46.5 65.3C46 65 45.4 65.2 45.1 65.7L42.1 70.9C42 71.1 42 71.4 42 71.6L28.6 76.1C28.3 76.2 28 76.5 28 76.8V77C27.9 77 27.9 77 27.8 77L21.8 78.6C15.9 80.2 11.6 85.1 10.8 91.1L10 96.9C10 97.2 10 97.5 10.2 97.7C10.4 97.9 10.7 98 11 98H100.8C101.1 98 101.4 97.9 101.6 97.7C101.8 97.5 101.9 97.2 101.8 96.9L101 91.2ZM58.1 96H53.7L45.9 74.2L52.5 78C52.7 78.1 52.8 78.1 53 78.1C53.1 78.1 53.2 78.1 53.3 78.1C53.6 78 53.8 77.9 53.9 77.6L56 74L58.1 77.7C58.2 77.9 58.5 78.1 58.7 78.2C58.8 78.2 58.9 78.2 59 78.2C59.2 78.2 59.3 78.2 59.5 78.1L65.8 74.5L58.1 96ZM65.6 67.6L67.6 71C67.3 71 67.1 71.2 66.9 71.5L59.4 75.9L57.4 72.4L63.3 69C63.4 69 63.5 68.9 63.6 68.8L65.6 67.6ZM74 45H73V39H74C75.7 39 77 40.3 77 42C77 43.7 75.7 45 74 45ZM75 28.1V31H69V25H70C70.6 25 71 24.6 71 24V17.2C73.6 20.2 75 24.1 75 28.1ZM67 11C67 10.4 67.4 10 68 10C68.6 10 69 10.4 69 11V23H67V11ZM56 19C58.2 19 60 20.8 60 23C60 25.2 58.2 27 56 27C53.8 27 52 25.2 52 23C52 20.8 53.8 19 56 19ZM55 8H57C57.6 8 58 8.4 58 9V17.4C57.4 17.2 56.7 17 56 17C55.3 17 54.6 17.1 54 17.4V9C54 8.4 54.4 8 55 8ZM52 18.5C50.8 19.6 50 21.2 50 23C50 26.3 52.7 29 56 29C59.3 29 62 26.3 62 23C62 21.2 61.2 19.6 60 18.5V11.1C61.7 11.3 63.4 11.8 65 12.5V24C65 24.6 65.4 25 66 25H67V31H45V25H46C46.6 25 47 24.6 47 24V12.6C48.6 11.9 50.3 11.4 52 11.2V18.5ZM43 11C43 10.4 43.4 10 44 10C44.6 10 45 10.4 45 11V23H43V11ZM37 28.1C37 24.1 38.4 20.2 41 17.1V24C41 24.6 41.4 25 42 25H43V31H37V28.1ZM36 33H76C77.1 33 78 33.9 78 35C78 36.1 77.1 37 76 37H36C34.9 37 34 36.1 34 35C34 33.9 34.9 33 36 33ZM38 45C36.3 45 35 43.7 35 42C35 40.3 36.3 39 38 39H39V45H38ZM41 47V39H71V47C71 55.3 64.3 62 56 62C47.7 62 41 55.3 41 47ZM50 62.9C51.9 63.6 53.9 64 56 64C58.1 64 60.1 63.6 62 62.9V67.4L56 70.9L50 67.4V62.9ZM46.4 67.6L48.3 68.7C48.4 68.8 48.6 68.9 48.7 68.9L54.6 72.3L52.6 75.8L44.4 71L46.4 67.6ZM12.7 91.4C13.4 86.2 17.1 81.9 22.3 80.5L27.4 79.2L25 87.7C24.9 88.2 25.2 88.8 25.7 88.9L34.4 91.5L31.4 95.9H12.1L12.7 91.4ZM33.9 96L36.9 91.6C37.1 91.3 37.1 91 37 90.7C36.9 90.4 36.7 90.2 36.3 90.1L27.2 87.4L29.8 77.9L43.4 73.4L51.6 96H33.9ZM60.2 96L68.4 73.3L82 77.8L84.6 87.3L75.5 90C75.2 90.1 75 90.3 74.8 90.6C74.7 90.9 74.7 91.2 74.9 91.5L77.9 95.9H60.2V96ZM80.3 96L77.3 91.6L86 89C86.5 88.8 86.8 88.3 86.7 87.8L84.4 79.3L89.5 80.6C94.6 82 98.4 86.2 99.1 91.5L99.7 96.1H80.3V96Z" fill="black"/>
  </g>
  <defs>
    <filter id="filter0_d_300_2549" x="0" y="0" width="111.839" height="112" filterUnits="userSpaceOnUse" color-interpolation-filters="sRGB">
      <feFlood flood-opacity="0" result="BackgroundImageFix"/>
      <feColorMatrix in="SourceAlpha" type="matrix" values="0 0 0 0 0 0 0 0 0 0 0 0 0 0 0 0 0 0 127 0" result="hardAlpha"/>
      <feOffset dy="4"/>
      <feGaussianBlur stdDeviation="5"/>
      <feComposite in2="hardAlpha" operator="out"/>
      <feColorMatrix type="matrix" values="0 0 0 0 1 0 0 0 0 0 0 0 0 0 0 0 0 0 1 0"/>
      <feBlend mode="normal" in2="BackgroundImageFix" result="effect1_dropShadow_300_2549"/>
      <feBlend mode="normal" in="SourceGraphic" in2="effect1_dropShadow_300_2549" result="shape"/>
    </filter>
  </defs>
</svg>