<svg xmlns="http://www.w3.org/2000/svg" width="24" height="19" viewBox="0 0 24 19" fill="none">
  <path d="M21 10.5C21 14.6421 16.9706 18 12 18C7.02944 18 3 14.6421 3 10.5C3 6.35786 7.02944 3 12 3C16.9706 3 21 6.35786 21 10.5Z" fill="#A6A6A6"/>
  <path d="M10 1H14V4H10V1Z" fill="#A6A6A6"/>
  <path d="M2 15H22V17H2V15Z" fill="#A6A6A6"/>
  <path d="M2.99868 19H20.9987C21.7055 19.0013 22.39 18.7525 22.9309 18.2975C23.4718 17.8425 23.8343 17.2108 23.9541 16.5142C24.0738 15.8176 23.9432 15.1011 23.5853 14.4915C23.2274 13.882 22.6654 13.4188 21.9987 13.184V12C22.0026 9.82555 21.2955 7.70944 19.9852 5.97414C18.6749 4.23883 16.8331 2.97948 14.7407 2.388L14.9787 1.2C15.0083 1.05469 15.0053 0.904608 14.9698 0.760616C14.9343 0.616624 14.8672 0.482331 14.7734 0.367466C14.6796 0.2526 14.5614 0.160037 14.4274 0.0964813C14.2934 0.0329261 14.147 -3.0249e-05 13.9987 2.08328e-08H9.99868C9.85037 -3.0249e-05 9.70392 0.0329261 9.56992 0.0964813C9.43593 0.160037 9.31775 0.2526 9.22394 0.367466C9.13013 0.482331 9.06305 0.616624 9.02755 0.760616C8.99205 0.904608 8.98902 1.05469 9.01868 1.2L9.25668 2.391C7.16471 2.98234 5.32336 4.24124 4.01308 5.97594C2.7028 7.71064 1.99542 9.82606 1.99868 12V13.184C1.332 13.4188 0.769933 13.882 0.412038 14.4915C0.0541442 15.1011 -0.0764838 15.8176 0.0432902 16.5142C0.163064 17.2108 0.52551 17.8425 1.06643 18.2975C1.60736 18.7525 2.29185 19.0013 2.99868 19ZM12.7777 2L12.5907 2.939V2.945L12.1787 5H11.8187L11.4097 2.945V2.939L11.2197 2H12.7777ZM3.99868 12C3.9951 10.2877 4.54263 8.61963 5.56029 7.24251C6.57796 5.86539 8.01175 4.85229 9.64968 4.353L10.0187 6.196C10.064 6.42261 10.1864 6.62654 10.365 6.77311C10.5437 6.91969 10.7676 6.99986 10.9987 7H12.9987C13.2294 7.00028 13.4531 6.92078 13.6319 6.77498C13.8107 6.62918 13.9335 6.42604 13.9797 6.2L14.3487 4.357C15.9858 4.85627 17.4189 5.86885 18.4363 7.24514C19.4537 8.62144 20.0015 10.2885 19.9987 12V13H3.99868V12ZM2.99868 15H20.9987C21.2639 15 21.5182 15.1054 21.7058 15.2929C21.8933 15.4804 21.9987 15.7348 21.9987 16C21.9987 16.2652 21.8933 16.5196 21.7058 16.7071C21.5182 16.8946 21.2639 17 20.9987 17H2.99868C2.73346 17 2.47911 16.8946 2.29157 16.7071C2.10403 16.5196 1.99868 16.2652 1.99868 16C1.99868 15.7348 2.10403 15.4804 2.29157 15.2929C2.47911 15.1054 2.73346 15 2.99868 15Z" fill="black"/>
</svg>