<svg xmlns="http://www.w3.org/2000/svg" width="30" height="30" viewBox="0 0 22 22" fill="none">
    <path fillRule="evenodd" clipRule="evenodd" d="M21.9066 11.0543C21.9066 17.0993 17.0063 21.9996 10.9613 21.9996C4.91632 21.9996 0.0160141 17.0993 0.0160141 11.0543C0.0160141 5.00938 4.91632 0.10907 10.9613 0.10907C17.0063 0.10907 21.9066 5.00938 21.9066 11.0543Z" fill="#66CDAA"/>
    <path d="M7.53797 15.6428H10.2563C10.354 15.6428 10.4507 15.662 10.5409 15.6994C10.6311 15.7367 10.7131 15.7915 10.7822 15.8606C10.8512 15.9296 10.906 16.0116 10.9434 16.1018C10.9808 16.1921 11 16.2888 11 16.3865V16.4712C11 16.6685 10.9216 16.8576 10.7822 16.9971C10.6427 17.1366 10.4535 17.2149 10.2563 17.2149H7.53797C7.34073 17.2149 7.15157 17.1366 7.0121 16.9971C6.87263 16.8576 6.79428 16.6685 6.79428 16.4712V16.3864C6.79428 16.2888 6.81351 16.1921 6.85089 16.1018C6.88826 16.0116 6.94304 15.9296 7.0121 15.8606C7.08116 15.7915 7.16314 15.7367 7.25337 15.6994C7.3436 15.662 7.44031 15.6428 7.53797 15.6428Z" fill="white"/>
    <path d="M11.2987 8.32849C11.1161 8.3287 10.941 8.40133 10.8119 8.53046C10.6827 8.65959 10.6101 8.83466 10.6099 9.01727V9.78623C10.6099 9.87668 10.6277 9.96624 10.6623 10.0498C10.697 10.1334 10.7477 10.2093 10.8116 10.2733C10.8756 10.3372 10.9515 10.388 11.0351 10.4226C11.1187 10.4572 11.2082 10.475 11.2987 10.475C11.3891 10.475 11.4787 10.4572 11.5623 10.4226C11.6458 10.388 11.7218 10.3372 11.7857 10.2733C11.8497 10.2093 11.9004 10.1334 11.935 10.0498C11.9696 9.96624 11.9874 9.87668 11.9874 9.78623V9.01727C11.9872 8.83465 11.9146 8.65958 11.7855 8.53045C11.6564 8.40133 11.4813 8.3287 11.2987 8.32849Z" fill="white"/>
    <path d="M16.6928 11.5887C16.6671 11.5887 16.642 11.5816 16.62 11.5683C16.598 11.555 16.5801 11.5359 16.5682 11.5132C16.5562 11.4905 16.5507 11.4649 16.5522 11.4393C16.5537 11.4136 16.5621 11.3889 16.5767 11.3677C16.9581 10.8002 17.1613 10.1317 17.1603 9.44796C17.1603 8.99517 17.0711 8.54681 16.8978 8.12849C16.7245 7.71016 16.4705 7.33006 16.1504 7.00989C15.8302 6.68972 15.4501 6.43575 15.0318 6.26247C14.6135 6.08919 14.1651 6.00001 13.7123 6.00001H7.44794C6.53349 6.00002 5.65649 6.36329 5.00988 7.0099C4.36326 7.65652 4 8.53352 4 9.44797C4 10.3624 4.36327 11.2394 5.00989 11.8861C5.6565 12.5327 6.53351 12.8959 7.44796 12.8959H9.92835C9.99672 12.8961 10.0629 12.9202 10.1153 12.9641C10.1678 13.0079 10.2032 13.0687 10.2154 13.136L10.2166 13.142C10.2244 13.1841 10.2228 13.2274 10.2119 13.2687C10.2011 13.3101 10.1812 13.3486 10.1538 13.3814C10.1264 13.4143 10.0921 13.4407 10.0533 13.4587C10.0145 13.4768 9.97223 13.4861 9.92945 13.486H9.52089C9.4064 13.4857 9.293 13.5081 9.18716 13.5517C9.08132 13.5954 8.98513 13.6594 8.90409 13.7403C8.82306 13.8212 8.75877 13.9172 8.7149 14.023C8.67103 14.1287 8.64845 14.2421 8.64845 14.3566C8.64845 14.4711 8.67103 14.5844 8.7149 14.6902C8.75877 14.7959 8.82306 14.892 8.90409 14.9729C8.98513 15.0537 9.08132 15.1178 9.18716 15.1615C9.293 15.2051 9.4064 15.2275 9.52089 15.2272H11.6394C11.7537 15.2272 11.8669 15.2047 11.9726 15.1609C12.0782 15.1172 12.1742 15.0531 12.255 14.9722C12.3359 14.8914 12.4 14.7954 12.4437 14.6898C12.4875 14.5841 12.51 14.4709 12.51 14.3566V14.3517C12.5101 14.3123 12.5257 14.2746 12.5535 14.2467C12.5814 14.2189 12.6191 14.2032 12.6584 14.2031H16.6928C17.0395 14.2031 17.372 14.0654 17.6171 13.8203C17.8623 13.5751 18 13.2426 18 12.8959C18 12.7243 17.9662 12.5543 17.9005 12.3957C17.8348 12.2371 17.7385 12.093 17.6172 11.9716C17.4958 11.8502 17.3517 11.7539 17.1931 11.6882C17.0345 11.6225 16.8645 11.5887 16.6928 11.5887ZM9.29988 10.7411C9.17417 10.8917 9.01691 11.0127 8.83923 11.0957C8.66156 11.1787 8.4678 11.2217 8.27169 11.2215H8.0825C7.72706 11.2211 7.38629 11.0797 7.13495 10.8284C6.88361 10.577 6.74224 10.2362 6.74184 9.8808V8.92263C6.74224 8.5672 6.88362 8.22643 7.13496 7.9751C7.3863 7.72377 7.72706 7.5824 8.0825 7.58201H8.27169C8.44783 7.58152 8.62231 7.61598 8.78504 7.68338C8.94776 7.75079 9.0955 7.84981 9.21969 7.97471C9.25447 8.00934 9.28208 8.0505 9.30094 8.09582C9.31979 8.14114 9.32952 8.18973 9.32957 8.23881C9.32962 8.2879 9.31999 8.33651 9.30123 8.38187C9.28246 8.42722 9.25494 8.46843 9.22023 8.50314C9.18552 8.53784 9.1443 8.56536 9.09894 8.58411C9.05358 8.60287 9.00496 8.61249 8.95588 8.61243C8.90679 8.61237 8.8582 8.60263 8.81289 8.58376C8.76758 8.5649 8.72643 8.53728 8.6918 8.50249C8.63676 8.44714 8.57129 8.40326 8.49918 8.37339C8.42707 8.34353 8.34975 8.32826 8.27169 8.32848H8.0825C7.92497 8.32866 7.77395 8.39131 7.66255 8.5027C7.55116 8.61408 7.4885 8.76511 7.48831 8.92263V9.8808C7.48849 10.0383 7.55115 10.1894 7.66254 10.3008C7.77393 10.4122 7.92497 10.4748 8.0825 10.475H8.27169C8.35865 10.4751 8.44456 10.456 8.52334 10.4192C8.60211 10.3824 8.67183 10.3287 8.72756 10.2619C8.7912 10.1863 8.88222 10.1391 8.98066 10.1305C9.07911 10.1219 9.17693 10.1527 9.2527 10.2161C9.32846 10.2796 9.37597 10.3705 9.38482 10.4689C9.39366 10.5673 9.36312 10.6652 9.29988 10.7411ZM12.7339 9.78622C12.7339 10.1669 12.5827 10.5319 12.3135 10.8011C12.0444 11.0702 11.6793 11.2215 11.2987 11.2215C10.918 11.2215 10.553 11.0702 10.2838 10.8011C10.0146 10.5319 9.86343 10.1669 9.86343 9.78622V9.01726C9.86343 8.63661 10.0146 8.27155 10.2838 8.00239C10.553 7.73323 10.918 7.58202 11.2987 7.58202C11.6793 7.58202 12.0444 7.73323 12.3135 8.00239C12.5827 8.27155 12.7339 8.63661 12.7339 9.01726V9.78622ZM14.8476 11.8609C14.9466 11.8609 15.0415 11.9002 15.1115 11.9702C15.1815 12.0402 15.2208 12.1351 15.2208 12.2341C15.2208 12.3331 15.1815 12.428 15.1115 12.498C15.0415 12.568 14.9466 12.6073 14.8476 12.6073H13.6197C13.549 12.6073 13.4799 12.5873 13.4202 12.5495C13.3605 12.5118 13.3127 12.4579 13.2825 12.3941C13.2522 12.3303 13.2406 12.2592 13.2491 12.1891C13.2577 12.119 13.2859 12.0528 13.3305 11.998L14.3868 10.7044C14.3917 10.6985 14.3967 10.6927 14.4019 10.6871C14.4379 10.6482 14.4617 10.5996 14.4706 10.5474C14.4794 10.4951 14.4728 10.4414 14.4516 10.3929C14.4303 10.3443 14.3954 10.303 14.3511 10.274C14.3067 10.245 14.2549 10.2295 14.2019 10.2295H14.1251C14.0528 10.2296 13.9836 10.2584 13.9325 10.3094C13.8814 10.3605 13.8527 10.4298 13.8526 10.502V10.5842C13.8526 10.6832 13.8132 10.7782 13.7433 10.8482C13.6733 10.9182 13.5783 10.9575 13.4793 10.9575C13.3803 10.9575 13.2854 10.9182 13.2154 10.8482C13.1454 10.7782 13.1061 10.6832 13.1061 10.5842V10.502C13.1064 10.2319 13.2139 9.97287 13.4049 9.78185C13.5959 9.59083 13.8549 9.48338 14.1251 9.48308H14.2019C14.399 9.48308 14.5918 9.54023 14.757 9.64759C14.9223 9.75495 15.0528 9.90792 15.1329 10.088C15.213 10.268 15.2391 10.4674 15.2082 10.6621C15.1772 10.8567 15.0905 11.0381 14.9586 11.1845L14.4063 11.8609H14.8476Z" fill="white"/>
</svg>