<svg width="30" height="30" viewBox="0 0 30 30" fill="none" xmlns="http://www.w3.org/2000/svg">
<g clip-path="url(#clip0_1_14)">
<path d="M29.3726 15.074C29.3726 23.0411 22.9143 29.4995 14.9472 29.4995C6.98021 29.4995 0.521835 23.0411 0.521835 15.074C0.521835 7.10712 6.98021 0.648735 14.9472 0.648735C22.9143 0.648735 29.3726 7.10712 29.3726 15.074Z" stroke="#3377D1"/>
<path d="M10.279 21.3311H13.9859C14.1191 21.3311 14.251 21.3573 14.374 21.4083C14.497 21.4591 14.6088 21.5339 14.703 21.6281C14.7971 21.7222 14.8718 21.834 14.9228 21.957C14.9738 22.0801 15 22.212 15 22.3452V22.4607C15 22.7298 14.8931 22.9876 14.703 23.1779C14.5128 23.3681 14.2548 23.4749 13.9859 23.4749H10.279C10.0101 23.4749 9.75214 23.3681 9.56195 23.1779C9.37176 22.9876 9.26492 22.7298 9.26492 22.4607V22.3451C9.26492 22.212 9.29115 22.0801 9.34212 21.957C9.39308 21.834 9.46778 21.7222 9.56195 21.6281C9.65612 21.5339 9.76791 21.4591 9.89095 21.4083C10.014 21.3573 10.1459 21.3311 10.279 21.3311Z" fill="#3377D1"/>
<path d="M15.4073 11.357C15.1583 11.3573 14.9195 11.4564 14.7435 11.6324C14.5673 11.8085 14.4683 12.0473 14.468 12.2963V13.3449C14.468 13.4682 14.4923 13.5903 14.5395 13.7043C14.5868 13.8183 14.656 13.9218 14.7431 14.009C14.8304 14.0962 14.9339 14.1655 15.0479 14.2126C15.1619 14.2598 15.2839 14.2841 15.4073 14.2841C15.5306 14.2841 15.6528 14.2598 15.7668 14.2126C15.8806 14.1655 15.9843 14.0962 16.0714 14.009C16.1587 13.9218 16.2278 13.8183 16.275 13.7043C16.3222 13.5903 16.3465 13.4682 16.3465 13.3449V12.2963C16.3462 12.0473 16.2472 11.8085 16.0711 11.6324C15.8951 11.4564 15.6563 11.3573 15.4073 11.357Z" fill="#3377D1"/>
<path d="M22.7629 15.8028C22.7279 15.8028 22.6936 15.7931 22.6636 15.775C22.6336 15.7568 22.6092 15.7308 22.593 15.6998C22.5766 15.6689 22.5691 15.634 22.5712 15.599C22.5732 15.564 22.5847 15.5303 22.6046 15.5014C23.1247 14.7275 23.4018 13.816 23.4004 12.8836C23.4004 12.2661 23.2788 11.6547 23.0425 11.0843C22.8061 10.5139 22.4598 9.99554 22.0233 9.55894C21.5866 9.12235 21.0683 8.77602 20.4979 8.53973C19.9275 8.30344 19.316 8.18183 18.6986 8.18183H10.1563C8.9093 8.18184 7.71339 8.67721 6.83165 9.55895C5.9499 10.4407 5.45454 11.6366 5.45454 12.8836C5.45454 14.1305 5.94991 15.3265 6.83167 16.2083C7.71341 17.09 8.90933 17.5853 10.1563 17.5853H13.5387C13.6319 17.5856 13.7221 17.6185 13.7936 17.6783C13.8652 17.738 13.9135 17.821 13.9301 17.9127L13.9317 17.9209C13.9424 17.9783 13.9402 18.0374 13.9253 18.0937C13.9106 18.1501 13.8835 18.2026 13.8461 18.2474C13.8087 18.2922 13.762 18.3282 13.709 18.3528C13.6561 18.3775 13.5985 18.3901 13.5402 18.39H12.983C12.8269 18.3896 12.6723 18.4201 12.5279 18.4796C12.3836 18.5392 12.2524 18.6265 12.1419 18.7368C12.0314 18.8471 11.9438 18.978 11.884 19.1223C11.8241 19.2664 11.7933 19.421 11.7933 19.5772C11.7933 19.7333 11.8241 19.8878 11.884 20.0321C11.9438 20.1762 12.0314 20.3073 12.1419 20.4176C12.2524 20.5278 12.3836 20.6152 12.5279 20.6748C12.6723 20.7342 12.8269 20.7648 12.983 20.7644H15.8719C16.0278 20.7644 16.1821 20.7337 16.3263 20.674C16.4703 20.6144 16.6012 20.527 16.7114 20.4166C16.8217 20.3065 16.9091 20.1755 16.9687 20.0315C17.0284 19.8874 17.0591 19.733 17.0591 19.5772V19.5705C17.0592 19.5168 17.0805 19.4654 17.1184 19.4273C17.1565 19.3894 17.2079 19.368 17.2615 19.3679H22.7629C23.2357 19.3679 23.6891 19.1801 24.0233 18.8459C24.3577 18.5115 24.5455 18.0581 24.5455 17.5853C24.5455 17.3513 24.4994 17.1195 24.4098 16.9032C24.3202 16.687 24.1889 16.4905 24.0235 16.3249C23.8579 16.1594 23.6614 16.028 23.4451 15.9385C23.2289 15.8489 22.997 15.8028 22.7629 15.8028ZM12.6817 14.647C12.5102 14.8523 12.2958 15.0173 12.0535 15.1305C11.8112 15.2437 11.547 15.3023 11.2796 15.302H11.0216C10.5369 15.3015 10.0722 15.1087 9.72948 14.766C9.38674 14.4232 9.19396 13.9585 9.19342 13.4738V12.1672C9.19396 11.6825 9.38675 11.2179 9.72949 10.8751C10.0722 10.5324 10.5369 10.3396 11.0216 10.3391H11.2796C11.5198 10.3384 11.7577 10.3854 11.9796 10.4773C12.2015 10.5693 12.403 10.7043 12.5723 10.8746C12.6197 10.9218 12.6574 10.978 12.6831 11.0398C12.7088 11.1016 12.7221 11.1678 12.7221 11.2347C12.7222 11.3017 12.7091 11.368 12.6835 11.4298C12.6579 11.4917 12.6204 11.5479 12.573 11.5952C12.5257 11.6425 12.4695 11.68 12.4076 11.7056C12.3458 11.7312 12.2795 11.7443 12.2126 11.7442C12.1456 11.7441 12.0794 11.7309 12.0176 11.7051C11.9558 11.6794 11.8997 11.6417 11.8525 11.5943C11.7774 11.5188 11.6881 11.459 11.5898 11.4183C11.4915 11.3775 11.386 11.3567 11.2796 11.357H11.0216C10.8068 11.3573 10.6008 11.4427 10.4489 11.5946C10.297 11.7465 10.2116 11.9524 10.2113 12.1672V13.4738C10.2116 13.6886 10.297 13.8946 10.4489 14.0465C10.6008 14.1985 10.8068 14.2838 11.0216 14.2841H11.2796C11.3982 14.2842 11.5153 14.2582 11.6227 14.208C11.7301 14.1578 11.8252 14.0846 11.9012 13.9935C11.988 13.8904 12.1121 13.826 12.2464 13.8143C12.3806 13.8026 12.514 13.8446 12.6173 13.931C12.7206 14.0176 12.7854 14.1416 12.7975 14.2758C12.8095 14.41 12.7679 14.5435 12.6817 14.647ZM17.3644 13.3448C17.3644 13.864 17.1582 14.3617 16.7911 14.7288C16.4242 15.0957 15.9263 15.302 15.4073 15.302C14.8882 15.302 14.3905 15.0957 14.0234 14.7288C13.6563 14.3617 13.4501 13.864 13.4501 13.3448V12.2963C13.4501 11.7772 13.6563 11.2794 14.0234 10.9123C14.3905 10.5453 14.8882 10.3391 15.4073 10.3391C15.9263 10.3391 16.4242 10.5453 16.7911 10.9123C17.1582 11.2794 17.3644 11.7772 17.3644 12.2963V13.3448ZM20.2467 16.174C20.3817 16.174 20.5111 16.2275 20.6066 16.323C20.702 16.4185 20.7556 16.5479 20.7556 16.6829C20.7556 16.8179 20.702 16.9473 20.6066 17.0427C20.5111 17.1382 20.3817 17.1918 20.2467 17.1918H18.5723C18.4759 17.1918 18.3817 17.1645 18.3003 17.113C18.2189 17.0615 18.1537 16.988 18.1125 16.901C18.0712 16.814 18.0554 16.7171 18.067 16.6215C18.0787 16.5259 18.1171 16.4356 18.178 16.3609L19.6184 14.5969C19.625 14.5889 19.6319 14.581 19.639 14.5733C19.688 14.5203 19.7205 14.454 19.7326 14.3828C19.7446 14.3115 19.7356 14.2383 19.7067 14.1721C19.6777 14.1059 19.6301 14.0495 19.5697 14.01C19.5091 13.9705 19.4385 13.9493 19.3662 13.9493H19.2615C19.1629 13.9495 19.0685 13.9887 18.9989 14.0583C18.9292 14.128 18.89 14.2225 18.8899 14.3209V14.433C18.8899 14.568 18.8362 14.6975 18.7409 14.793C18.6454 14.8885 18.5159 14.942 18.3809 14.942C18.2459 14.942 18.1165 14.8885 18.021 14.793C17.9255 14.6975 17.872 14.568 17.872 14.433V14.3209C17.8724 13.9526 18.019 13.5994 18.2794 13.3389C18.5399 13.0784 18.893 12.9319 19.2615 12.9315H19.3662C19.635 12.9315 19.8979 13.0094 20.1232 13.1558C20.3486 13.3022 20.5265 13.5108 20.6358 13.7564C20.745 14.0018 20.7806 14.2737 20.7385 14.5392C20.6962 14.8046 20.578 15.052 20.3981 15.2516L19.645 16.174H20.2467Z" fill="#3377D1"/>
</g>
<defs>
<clipPath id="clip0_1_14">
<rect width="30" height="30" fill="white"/>
</clipPath>
</defs>
</svg>
