<svg width="30" height="30" viewBox="0 0 30 30" fill="none" xmlns="http://www.w3.org/2000/svg">
<g clip-path="url(#clip0_1_33)">
<path d="M15 29.5C6.99179 29.5 0.5 23.0082 0.5 15C0.5 6.99179 6.99179 0.5 15 0.5C23.0082 0.5 29.5 6.99179 29.5 15C29.5 23.0082 23.0082 29.5 15 29.5Z" stroke="#3377D1"/>
<path d="M20.1507 17.9228C20.883 17.8456 21.5603 17.506 22.0523 16.9692C22.5445 16.4325 22.8166 15.7366 22.8166 15.0153C22.8166 14.2939 22.5445 13.5979 22.0523 13.0612C21.5603 12.5245 20.883 12.1848 20.1507 12.1076C20.302 11.7375 20.3395 11.3323 20.2587 10.9416C20.178 10.551 19.9826 10.1919 19.6964 9.90859L19.6124 9.8338C19.9942 9.68794 20.2233 9.56453 20.2538 9.27657C20.2844 8.98861 20.0095 8.77919 19.5933 8.52862C19.0235 8.17459 18.5857 7.64996 18.3447 7.03272C18.1653 6.58395 18.0469 6.28477 17.7147 6.25485C17.3825 6.22493 17.2069 6.4942 16.9511 6.90183C16.7962 7.13575 16.6099 7.3483 16.3975 7.53385C15.9754 7.1873 15.4635 6.96205 14.9187 6.88302C14.3738 6.80399 13.8173 6.87431 13.3108 7.08615C12.8043 7.29799 12.3676 7.6431 12.0491 8.08321C11.7306 8.52331 11.5427 9.04121 11.5064 9.57949C11.15 9.47881 10.7726 9.4736 10.4135 9.56441C10.0544 9.65521 9.7267 9.83872 9.46463 10.0958C9.20257 10.3528 9.01571 10.6741 8.92353 11.0259C8.83135 11.3778 8.83722 11.7475 8.94054 12.0963C8.23651 12.1449 7.5728 12.4362 7.06718 12.9185C6.56156 13.4009 6.24674 14.043 6.17854 14.7311C6.11036 15.419 6.29322 16.1086 6.69469 16.6771C7.09616 17.2456 7.69028 17.6565 8.37164 17.8369C8.21748 17.9538 8.05259 18.0565 7.87909 18.1436C7.44 18.3604 7.14982 18.5175 7.14982 18.8317C7.14982 19.1457 7.44 19.3066 7.87909 19.5235C8.48032 19.8196 8.96877 20.2966 9.27273 20.8848C9.49418 21.3185 9.65454 21.6027 9.97527 21.6027C10.296 21.6027 10.4602 21.3185 10.6816 20.8848C10.7084 20.8287 10.7504 20.7764 10.7847 20.7202C11.0378 20.716 11.2877 20.6652 11.5216 20.5706C11.6005 21.2879 11.9473 21.9513 12.4953 22.4332C13.0432 22.9152 13.7538 23.1818 14.4903 23.1818C15.2268 23.1818 15.9374 22.9152 16.4853 22.4332C17.0333 21.9513 17.38 21.2879 17.4589 20.5706C17.8365 20.7232 18.2519 20.7629 18.6525 20.6846C19.0531 20.6065 19.4212 20.4138 19.7103 20.1311C19.9992 19.8483 20.1964 19.4881 20.2769 19.0958C20.3573 18.7035 20.3174 18.2967 20.1622 17.9266L20.1507 17.9228ZM17.5887 7.30572L17.6155 7.26458C17.6155 7.26458 17.6155 7.2945 17.6155 7.30946C17.928 8.07462 18.4835 8.72103 19.2 9.15316L19.2382 9.17933H19.1962C18.4083 9.47865 17.7401 10.019 17.2909 10.7201C17.2833 10.7334 17.2744 10.746 17.2642 10.7575C17.2642 10.7575 17.2642 10.7276 17.2642 10.7164C16.9589 9.95388 16.4131 9.30668 15.7064 8.86894L15.6682 8.84276H15.7102C16.4869 8.53851 17.1449 8.00024 17.5887 7.30572ZM9.95236 20.5931V20.5519C9.57477 19.8211 8.9688 19.2277 8.22273 18.8579L8.18073 18.8354L8.22273 18.8167C8.96568 18.4426 9.57049 17.8503 9.95236 17.1226V17.0815L9.97527 17.1226C10.3585 17.8495 10.9684 18.4377 11.7164 18.8017L11.7584 18.8204L11.7164 18.8429C10.9695 19.2116 10.3632 19.8055 9.98673 20.5369L9.95236 20.5931ZM19.1465 19.5983C18.9007 19.8325 18.5712 19.9635 18.2283 19.9635C17.8853 19.9635 17.5559 19.8325 17.31 19.5983C17.2519 19.5487 17.1798 19.5176 17.1033 19.5089C17.0268 19.5001 16.9493 19.5143 16.8811 19.5495C16.813 19.5847 16.7573 19.6392 16.7215 19.706C16.6855 19.7729 16.6711 19.8487 16.68 19.9237C16.6951 20.029 16.7028 20.1352 16.7029 20.2415C16.7029 20.8188 16.4688 21.3724 16.052 21.7805C15.6353 22.1887 15.0701 22.418 14.4807 22.418C13.8914 22.418 13.3261 22.1887 12.9094 21.7805C12.4927 21.3724 12.2585 20.8188 12.2585 20.2415C12.2587 20.1352 12.2664 20.029 12.2815 19.9237C12.2902 19.8485 12.2756 19.7727 12.2395 19.7059C12.2034 19.6392 12.1474 19.5847 12.0791 19.5496H12.0371H12.0562C12.4991 19.3328 12.7893 19.1757 12.7893 18.8579C12.7893 18.54 12.4991 18.3866 12.0562 18.1696C11.457 17.8735 10.9711 17.3962 10.6702 16.8085C10.4487 16.3784 10.2884 16.0942 9.96382 16.0942C9.63927 16.0942 9.48273 16.3784 9.26127 16.8085C9.18903 16.9478 9.10606 17.0816 9.01309 17.2085C8.70994 17.195 8.41283 17.1209 8.14008 16.9905C7.86732 16.8603 7.62472 16.6766 7.42719 16.4509C7.22969 16.2252 7.08145 15.9625 6.99164 15.6784C6.90181 15.3945 6.87233 15.0956 6.90498 14.8001C6.93764 14.5046 7.03173 14.2188 7.18148 13.9602C7.33124 13.7017 7.53346 13.476 7.7757 13.297C8.01794 13.1179 8.29504 12.9894 8.58994 12.9192C8.88484 12.8491 9.19128 12.8389 9.49036 12.8892C9.56565 12.9036 9.64362 12.8954 9.7141 12.8658C9.78458 12.8361 9.84432 12.7864 9.88553 12.723C9.92674 12.6597 9.94751 12.5856 9.94512 12.5105C9.94275 12.4354 9.91733 12.3628 9.87218 12.302C9.69476 12.0546 9.61227 11.7538 9.63927 11.4526C9.66627 11.1514 9.80104 10.8692 10.0198 10.6558C10.2385 10.4425 10.5272 10.3117 10.8348 10.2865C11.1424 10.2613 11.4492 10.3434 11.7011 10.5182C11.7638 10.5592 11.8376 10.5811 11.913 10.5811C11.9884 10.5811 12.0622 10.5592 12.1249 10.5182C12.1883 10.4795 12.2388 10.4235 12.27 10.357C12.3012 10.2905 12.3118 10.2165 12.3005 10.1442C12.2317 9.72526 12.2896 9.29576 12.4671 8.90868C12.6446 8.52161 12.9339 8.1939 13.2993 7.96601C13.6647 7.73813 14.0903 7.62003 14.5235 7.62631C14.9566 7.63259 15.3785 7.76295 15.7369 8.00131C15.6378 8.05395 15.5358 8.10139 15.4315 8.14343C14.9733 8.31919 14.6678 8.43513 14.6373 8.76423C14.6067 9.09333 14.8816 9.26161 15.2978 9.51218C15.8675 9.86621 16.3054 10.3908 16.5464 11.0081C16.7258 11.4569 16.8442 11.756 17.1802 11.786H17.2298C17.5315 11.786 17.6995 11.5242 17.9476 11.1352C18.1834 10.7798 18.4898 10.4745 18.8487 10.2377C18.9635 10.2943 19.0691 10.3674 19.1618 10.4546C19.4009 10.6954 19.5346 11.0181 19.5346 11.354C19.5346 11.6899 19.4009 12.0126 19.1618 12.2534C19.1069 12.3098 19.0713 12.3815 19.06 12.4587C19.0486 12.5359 19.0623 12.6145 19.0988 12.6838C19.1354 12.753 19.1932 12.8093 19.2641 12.8447C19.3349 12.8802 19.4153 12.8932 19.494 12.8817C19.796 12.8389 20.1038 12.8575 20.3981 12.9363C20.6925 13.0151 20.9671 13.1524 21.205 13.3397C21.4428 13.5271 21.6386 13.7603 21.7803 14.025C21.922 14.2898 22.0065 14.5803 22.0286 14.8784C22.0507 15.1765 22.0099 15.4758 21.9086 15.7578C21.8074 16.0398 21.648 16.2983 21.4403 16.5172C21.2325 16.7362 20.981 16.9109 20.7014 17.0305C20.4217 17.15 20.1199 17.212 19.8147 17.2124C19.7074 17.2125 19.6002 17.205 19.494 17.1899C19.4174 17.1813 19.3399 17.1956 19.2717 17.231C19.2035 17.2664 19.1479 17.3212 19.1122 17.3881C19.0759 17.4574 19.0627 17.5362 19.0743 17.6133C19.0859 17.6905 19.1219 17.762 19.1771 17.8182C19.408 18.0605 19.5348 18.3806 19.5312 18.712C19.5277 19.0435 19.394 19.3608 19.158 19.5983H19.1465Z" fill="#3377D1"/>
<path d="M9.56291 8.02001C9.55988 7.6659 9.44977 7.3206 9.24646 7.02776C9.04317 6.73491 8.75581 6.50765 8.4207 6.3747C8.08559 6.24176 7.71777 6.20907 7.36371 6.28078C7.00964 6.3525 6.68521 6.52539 6.43143 6.77761C6.17764 7.02984 6.00588 7.35009 5.93783 7.6979C5.8698 8.0457 5.90853 8.40545 6.04915 8.7317C6.18976 9.05795 6.42596 9.33605 6.72788 9.53089C7.02981 9.72571 7.38391 9.82851 7.74546 9.82631C7.98596 9.82485 8.22381 9.77693 8.44537 9.68532C8.66695 9.5937 8.86789 9.46017 9.03671 9.2924C9.20553 9.12462 9.33891 8.92587 9.42919 8.70754C9.51949 8.48921 9.56493 8.25557 9.56291 8.02001ZM6.67255 8.02001C6.67556 7.81463 6.7404 7.61469 6.85893 7.44525C6.97747 7.2758 7.14442 7.1444 7.33889 7.06749C7.53334 6.9906 7.74664 6.97161 7.95206 7.01295C8.15749 7.05428 8.34588 7.15407 8.49364 7.29983C8.64141 7.44559 8.74195 7.63081 8.78269 7.8323C8.82344 8.03379 8.80255 8.24258 8.72265 8.43249C8.64277 8.62241 8.50741 8.78499 8.33359 8.89989C8.15976 9.01478 7.95517 9.07687 7.74546 9.07837C7.60364 9.07937 7.46302 9.05263 7.33189 8.99971C7.20075 8.94679 7.08172 8.86875 6.98179 8.77017C6.88185 8.67159 6.80302 8.55446 6.74992 8.42563C6.69682 8.29682 6.67051 8.15892 6.67255 8.02001Z" fill="#3377D1"/>
<path d="M23.6367 6.95044C23.6367 6.65458 23.5471 6.36537 23.3793 6.11937C23.2115 5.87337 22.973 5.68163 22.6939 5.56841C22.4149 5.4552 22.1078 5.42557 21.8115 5.48329C21.5152 5.54101 21.2431 5.68348 21.0295 5.89268C20.8159 6.10189 20.6704 6.36844 20.6115 6.65861C20.5526 6.94879 20.5829 7.24957 20.6985 7.52291C20.814 7.79623 21.0098 8.02987 21.261 8.19424C21.512 8.35861 21.8074 8.44635 22.1095 8.44635C22.31 8.44635 22.5086 8.40765 22.6939 8.33247C22.8792 8.25731 23.0476 8.14711 23.1895 8.00821C23.3313 7.8693 23.4438 7.70439 23.5204 7.52291C23.5972 7.34141 23.6367 7.14688 23.6367 6.95044ZM21.3458 6.95044C21.3458 6.80251 21.3905 6.65791 21.4745 6.53491C21.5584 6.41191 21.6777 6.31603 21.8172 6.25943C21.9567 6.20281 22.1103 6.188 22.2585 6.21687C22.4066 6.24573 22.5427 6.31696 22.6495 6.42157C22.7562 6.52617 22.8289 6.65944 22.8584 6.80453C22.8878 6.94962 22.8728 7.1 22.815 7.23667C22.7572 7.37334 22.6593 7.49015 22.5337 7.57234C22.4081 7.65453 22.2605 7.69839 22.1095 7.69839C22.0085 7.69939 21.9085 7.68076 21.8149 7.64362C21.7214 7.60647 21.6363 7.55154 21.5645 7.48198C21.4928 7.41244 21.4358 7.32965 21.3971 7.23841C21.3582 7.14717 21.3382 7.0493 21.3382 6.95044H21.3458Z" fill="#3377D1"/>
<path d="M24.5455 20.9895C24.5455 20.6936 24.4559 20.4044 24.288 20.1584C24.1203 19.9124 23.8818 19.7206 23.6026 19.6075C23.3236 19.4943 23.0165 19.4645 22.7202 19.5224C22.4239 19.58 22.1519 19.7225 21.9382 19.9317C21.7246 20.1409 21.5791 20.4075 21.5202 20.6977C21.4613 20.9879 21.4916 21.2885 21.6072 21.562C21.7227 21.8352 21.9185 22.069 22.1697 22.2333C22.4208 22.3976 22.7161 22.4854 23.0182 22.4854C23.4232 22.4854 23.8117 22.3278 24.0982 22.0473C24.3845 21.7666 24.5455 21.3862 24.5455 20.9895ZM22.2545 20.9895C22.2545 20.8415 22.2993 20.697 22.3833 20.574C22.4671 20.451 22.5865 20.355 22.726 20.2984C22.8655 20.2418 23.019 20.2271 23.1672 20.2559C23.3153 20.2848 23.4514 20.356 23.5582 20.4605C23.665 20.5651 23.7376 20.6985 23.7671 20.8436C23.7965 20.9887 23.7815 21.1391 23.7237 21.2757C23.6659 21.4124 23.568 21.5292 23.4424 21.6113C23.3168 21.6935 23.1693 21.7375 23.0182 21.7375C22.8157 21.7375 22.6214 21.6586 22.4782 21.5183C22.335 21.3781 22.2545 21.1879 22.2545 20.9895Z" fill="#3377D1"/>
<path d="M6.77945 23.0351C7.0415 23.0351 7.29766 22.959 7.51555 22.8164C7.73341 22.6739 7.90324 22.4711 8.00351 22.2341C8.10379 21.997 8.13003 21.736 8.0789 21.4842C8.0278 21.2325 7.9016 21.0014 7.71631 20.8199C7.53102 20.6384 7.29495 20.5147 7.03793 20.4646C6.78093 20.4146 6.51454 20.4402 6.27244 20.5385C6.03034 20.6367 5.82342 20.8031 5.67784 21.0165C5.53226 21.2299 5.45455 21.4808 5.45455 21.7375C5.45404 21.9079 5.48797 22.077 5.55438 22.2346C5.62079 22.3923 5.71835 22.5356 5.84148 22.6561C5.96461 22.7767 6.11088 22.8723 6.27184 22.9373C6.43282 23.0024 6.60533 23.0356 6.77945 23.0351ZM6.77945 21.1915C6.89063 21.1915 6.9993 21.2238 7.09167 21.2843C7.18406 21.3449 7.25599 21.431 7.29836 21.5317C7.34073 21.6323 7.35162 21.743 7.32966 21.8498C7.30769 21.9566 7.25385 22.0545 7.17496 22.1313C7.09609 22.2079 6.99573 22.26 6.8866 22.2807C6.77748 22.3016 6.6645 22.2901 6.56201 22.248C6.45952 22.2057 6.37212 22.1348 6.31092 22.0439C6.24971 21.9529 6.21743 21.8463 6.21818 21.7375C6.21919 21.5922 6.27877 21.4534 6.38392 21.3511C6.48907 21.2489 6.63125 21.1915 6.77945 21.1915Z" fill="#3377D1"/>
</g>
<defs>
<clipPath id="clip0_1_33">
<rect width="30" height="30" fill="white"/>
</clipPath>
</defs>
</svg>
