<svg width="30" height="30" viewBox="0 0 30 30" fill="none" xmlns="http://www.w3.org/2000/svg">
<g clip-path="url(#clip0_1_53)">
<path d="M29.5 15C29.5 23.0081 23.0081 29.5 15 29.5C6.99188 29.5 0.5 23.0081 0.5 15C0.5 6.99187 6.99187 0.5 15 0.5C23.0081 0.5 29.5 6.99188 29.5 15Z" stroke="#3377D1"/>
<path d="M20.1176 13.4186L15.3154 5.77098C15.2457 5.67312 15.1537 5.59335 15.0469 5.53831C14.9401 5.48326 14.8218 5.45454 14.7016 5.45454C14.5816 5.45454 14.4633 5.48326 14.3565 5.53831C14.2497 5.59335 14.1577 5.67312 14.088 5.77098L9.26419 13.4557C8.59415 14.5364 8.22083 15.7747 8.18182 17.0457C8.18182 18.7748 8.86873 20.4333 10.0915 21.6559C11.3142 22.8787 12.9725 23.5655 14.7016 23.5655C16.4309 23.5655 18.0892 22.8787 19.312 21.6559C20.5347 20.4333 21.2216 18.7748 21.2216 17.0457C21.18 15.7605 20.7991 14.5091 20.1176 13.4186ZM14.7016 22.1171C13.3573 22.1153 12.0685 21.5805 11.1178 20.6299C10.1672 19.6793 9.63238 18.3904 9.63068 17.046C9.66915 16.0328 9.97353 15.0475 10.5133 14.189L11.1906 13.1105L18.4883 20.4078C18.0143 20.9448 17.4316 21.3749 16.7787 21.6695C16.126 21.9641 15.418 22.1167 14.7016 22.1171Z" fill="#3377D1"/>
</g>
<defs>
<clipPath id="clip0_1_53">
<rect width="30" height="30" fill="white"/>
</clipPath>
</defs>
</svg>
