<svg width="22" height="22" viewBox="0 0 22 22" fill="none" xmlns="http://www.w3.org/2000/svg">
<path d="M22 11C22 17.0751 17.0751 22 11 22C4.92487 22 0 17.0751 0 11C0 4.92487 4.92487 0 11 0C17.0751 0 22 4.92487 22 11Z" fill="#87CEFA"/>
<path d="M22 11C22 17.0751 17.0751 22 11 22C4.92487 22 0 17.0751 0 11C0 4.92487 4.92487 0 11 0C17.0751 0 22 4.92487 22 11Z" fill="#87CEFA"/>
<path d="M14.7529 9.8403L11.2313 4.23205C11.1802 4.16029 11.1127 4.10179 11.0344 4.06143C10.9561 4.02106 10.8693 4 10.7812 4C10.6932 4 10.6064 4.02106 10.5281 4.06143C10.4498 4.10179 10.3823 4.16029 10.3312 4.23205L6.79374 9.8675C6.30238 10.66 6.02861 11.5681 6 12.5002C6 13.7682 6.50374 14.9844 7.4004 15.881C8.29705 16.7777 9.51318 17.2814 10.7812 17.2814C12.0493 17.2814 13.2654 16.7777 14.1621 15.881C15.0588 14.9844 15.5625 13.7682 15.5625 12.5002C15.532 11.5577 15.2527 10.64 14.7529 9.8403ZM10.7812 16.2192C9.79536 16.2179 8.85021 15.8257 8.15308 15.1286C7.45595 14.4315 7.06375 13.4863 7.0625 12.5004C7.09071 11.7574 7.31392 11.0348 7.70972 10.4053L8.20644 9.61436L13.5581 14.9657C13.2105 15.3595 12.7832 15.6749 12.3044 15.891C11.8257 16.107 11.3065 16.2189 10.7812 16.2192Z" fill="white"/>
</svg>
