<svg xmlns="http://www.w3.org/2000/svg" width="46" height="60" viewBox="0 0 46 60" fill="none">
  <path d="M1 11C1 5.47715 5.47715 1 11 1H35C40.5228 1 45 5.47715 45 11V49C45 54.5228 40.5228 59 35 59H11C5.47715 59 1 54.5228 1 49V11Z" fill="#D9D9D9"/>
  <path d="M1 4C1 2.34315 2.34315 1 4 1H42C43.6569 1 45 2.34315 45 4V56C45 57.6569 43.6569 59 42 59H4C2.34315 59 1 57.6569 1 56V4Z" fill="#0FBE00"/>
  <path d="M6.5 9C6.5 8.17157 7.00736 7 8.25 7H36.75C37.9926 7 39 7.67157 39 8.5V33C39 33.8284 37.5 35 36.75 36H8.25C7 35.5 6 34.3284 6 33.5L6.5 9Z" fill="white"/>
  <path d="M28 48.5001C28 50.9854 25.7614 53.0001 23 53.0001C20.2386 53.0001 18 50.9854 18 48.5001C18 46.0148 20.2386 44.0001 23 44.0001C25.7614 44.0001 28 46.0148 28 48.5001Z" fill="white"/>
  <path d="M15 49.0001C15 50.1046 12.7614 51.0001 10 51.0001C7.23858 51.0001 5 50.1046 5 49.0001C5 47.8955 7.23858 47.0001 10 47.0001C12.7614 47.0001 15 47.8955 15 49.0001Z" fill="white"/>
  <path d="M41 49.0001C41 50.1046 38.7614 51.0001 36 51.0001C33.2386 51.0001 31 50.1046 31 49.0001C31 47.8955 33.2386 47.0001 36 47.0001C38.7614 47.0001 41 47.8955 41 49.0001Z" fill="white"/>
  <path d="M45 12.5V55.5C45 57.7091 43.2091 59.5 41 59.5H5C2.79086 59.5 1 57.7091 1 55.5V5C1 2.79086 2.79086 1 5 1H41C43.2091 1 45 2.79086 45 5V6.5M6 30V10.5C6 8.29086 7.79086 6.5 10 6.5H35.5C37.7091 6.5 39.5 8.29086 39.5 10.5V32C39.5 34.2091 37.7091 36 35.5 36H8.5C7.11929 36 6 34.8807 6 33.5M13.5 9.5L9 14M19 9.5L9 20M31.9142 50.4142C31.1332 49.6332 31.1332 48.3668 31.9142 47.5858C32.2893 47.2107 32.798 47 33.3284 47H39.1716C39.702 47 40.2107 47.2107 40.5858 47.5858C41.3668 48.3668 41.3668 49.6332 40.5858 50.4142C40.2107 50.7893 39.702 51 39.1716 51H33.3284C32.798 51 32.2893 50.7893 31.9142 50.4142ZM18.5 48.1569V49.3431C18.5 50.404 18.9214 51.4214 19.6716 52.1716L19.8284 52.3284C20.5786 53.0786 21.596 53.5 22.6569 53.5H23.3431C24.404 53.5 25.4214 53.0786 26.1716 52.3284L26.3284 52.1716C27.0786 51.4214 27.5 50.404 27.5 49.3431V48.1569C27.5 47.096 27.0786 46.0786 26.3284 45.3284L26.1716 45.1716C25.4214 44.4214 24.404 44 23.3431 44H22.6569C21.596 44 20.5786 44.4214 19.8284 45.1716L19.6716 45.3284C18.9214 46.0786 18.5 47.096 18.5 48.1569ZM5.41421 50.4142C4.63317 49.6332 4.63317 48.3668 5.41421 47.5858C5.78929 47.2107 6.29799 47 6.82843 47H12.6716C13.202 47 13.7107 47.2107 14.0858 47.5858C14.8668 48.3668 14.8668 49.6332 14.0858 50.4142C13.7107 50.7893 13.202 51 12.6716 51H6.82843C6.29799 51 5.78929 50.7893 5.41421 50.4142Z" stroke="black"/>
</svg>