<svg xmlns="http://www.w3.org/2000/svg" width="30" height="30" viewBox="0 0 22 22" fill="none">
    <path fillRule="evenodd" clipRule="evenodd" d="M21.8905 10.9453C21.8905 16.9902 16.9902 21.8905 10.9453 21.8905C4.90031 21.8905 0 16.9902 0 10.9453C0 4.90031 4.90031 0 10.9453 0C16.9902 0 21.8905 4.90031 21.8905 10.9453Z" fill="#FF8C00"/>
    <path d="M13.9731 11.5178C13.9381 11.4936 13.9094 11.4614 13.8894 11.4239C13.8695 11.3864 13.8588 11.3446 13.8582 11.3021V5.98947C13.8582 5.46183 13.6484 4.9558 13.2749 4.5827C12.9013 4.2096 12.3947 4 11.8664 4C11.3382 4 10.8316 4.2096 10.458 4.5827C10.0845 4.9558 9.87465 5.46183 9.87465 5.98947V11.3021C9.87526 11.342 9.86638 11.3815 9.84872 11.4173C9.83107 11.4531 9.80515 11.4842 9.77311 11.5081C9.16217 11.9489 8.70561 12.5705 8.46814 13.2849C8.23066 13.9994 8.22431 14.7703 8.44998 15.4885C8.67566 16.2068 9.12191 16.8358 9.7255 17.2866C10.3291 17.7374 11.0594 17.9869 11.8129 18H11.8664C12.3375 17.9999 12.8039 17.9072 13.239 17.7271C13.6742 17.5471 14.0696 17.2831 14.4026 16.9504C14.7356 16.6177 14.9998 16.2227 15.18 15.788C15.3602 15.3534 15.4529 14.8875 15.4529 14.417C15.4518 13.8516 15.3172 13.2944 15.0601 12.7907C14.803 12.2869 14.4306 11.8509 13.9731 11.5178ZM13.8903 16.4693C13.6072 16.7484 13.2693 16.9659 12.898 17.1083C12.5266 17.2507 12.1298 17.3149 11.7325 17.2967C11.3351 17.2786 10.9458 17.1785 10.589 17.0029C10.2322 16.8272 9.91571 16.5797 9.65929 16.276C9.40288 15.9722 9.21214 15.6188 9.09905 15.2379C8.98597 14.857 8.953 14.4568 9.0022 14.0626C9.0514 13.6683 9.18172 13.2885 9.38495 12.947C9.58819 12.6054 9.85996 12.3096 10.1832 12.078C10.3055 11.989 10.405 11.8722 10.4734 11.7373C10.5418 11.6025 10.5773 11.4533 10.5769 11.3021V5.98947C10.5769 5.82042 10.6102 5.65302 10.675 5.49684C10.7397 5.34066 10.8347 5.19874 10.9543 5.07921C11.074 4.95967 11.2161 4.86485 11.3725 4.80015C11.5288 4.73546 11.6964 4.70217 11.8657 4.70217C12.0349 4.70217 12.2025 4.73546 12.3589 4.80015C12.5152 4.86485 12.6573 4.95967 12.777 5.07921C12.8967 5.19874 12.9916 5.34066 13.0564 5.49684C13.1211 5.65302 13.1545 5.82042 13.1545 5.98947V11.3021C13.1556 11.4553 13.1927 11.6061 13.263 11.7423C13.3333 11.8784 13.4348 11.9961 13.5591 12.0858C13.927 12.3537 14.2264 12.7044 14.4332 13.1095C14.6399 13.5146 14.7482 13.9627 14.7491 14.4174C14.7504 14.7994 14.6751 15.1777 14.5276 15.5302C14.3801 15.8826 14.1634 16.2019 13.8903 16.4693Z" fill="white"/>
    <path d="M12.3347 12.6093V8.52545H11.3974V12.6093C10.9543 12.7233 10.5681 12.9948 10.3111 13.3729C10.0542 13.751 9.94411 14.2097 10.0016 14.6631C10.0591 15.1164 10.2802 15.5333 10.6235 15.8354C10.9667 16.1376 11.4085 16.3043 11.866 16.3043C12.3236 16.3043 12.7654 16.1376 13.1086 15.8354C13.4518 15.5333 13.6729 15.1164 13.7305 14.6631C13.788 14.2097 13.6779 13.751 13.4209 13.3729C13.164 12.9948 12.7778 12.7233 12.3347 12.6093Z" fill="white"/>
    <path d="M16.8596 4.7326H14.9979V5.35675H16.8596V4.7326Z" fill="white"/>
    <path d="M18 6.35419H14.9979V6.97833H18V6.35419Z" fill="white"/>
    <path d="M16.8596 7.9758H14.9979V8.59995H16.8596V7.9758Z" fill="white"/>
    <path d="M18 9.59705H14.9979V10.2212H18V9.59705Z" fill="white"/>
    <path d="M8.82562 8.28789C8.82562 7.99064 8.34837 7.79052 8.2398 7.53189C8.12849 7.2639 8.31791 6.78643 8.11794 6.58475C7.91798 6.38307 7.43761 6.57383 7.1693 6.46304C6.91076 6.35577 6.71002 5.8779 6.41281 5.8779C6.1156 5.8779 5.91486 6.3546 5.65593 6.46304C5.38801 6.57383 4.90959 6.38268 4.70767 6.58475C4.50576 6.78682 4.69674 7.2639 4.58582 7.53189C4.47842 7.79052 4 7.99064 4 8.28789C4 8.58514 4.47725 8.78526 4.58582 9.0435C4.6983 9.31149 4.50693 9.78857 4.70924 9.99064C4.91154 10.1927 5.38957 10.0016 5.65749 10.1123C5.91642 10.2196 6.11677 10.6975 6.41437 10.6975C6.71197 10.6975 6.91232 10.2208 7.17086 10.1123C7.43917 10.0016 7.9172 10.1927 8.11951 9.99064C8.32181 9.78857 8.13005 9.31149 8.24136 9.0435C8.34837 8.78526 8.82562 8.58475 8.82562 8.28789ZM6.41437 9.28769C6.2163 9.28769 6.02268 9.22902 5.858 9.1191C5.69332 9.00918 5.56497 8.85295 5.48919 8.67017C5.41341 8.48738 5.3936 8.28626 5.43227 8.09223C5.47094 7.8982 5.56635 7.71998 5.70644 7.58012C5.84652 7.44025 6.02498 7.34502 6.21925 7.30648C6.41353 7.26793 6.61488 7.28779 6.79785 7.36355C6.98082 7.43931 7.13718 7.56757 7.24717 7.73211C7.35715 7.89664 7.41581 8.09005 7.41574 8.28789C7.41574 8.41922 7.38983 8.54926 7.33951 8.67059C7.28918 8.79192 7.21541 8.90215 7.12242 8.995C7.02943 9.08784 6.91904 9.16148 6.79755 9.2117C6.67606 9.26192 6.54585 9.28775 6.41437 9.28769Z" fill="white"/>
</svg>