<svg width="30" height="30" viewBox="0 0 30 30" fill="none" xmlns="http://www.w3.org/2000/svg">
<g clip-path="url(#clip0_1_44)">
<path d="M29.3507 14.9254C29.3507 22.8923 22.8923 29.3507 14.9254 29.3507C6.95838 29.3507 0.5 22.8923 0.5 14.9254C0.5 6.95838 6.95838 0.5 14.9254 0.5C22.8923 0.5 29.3507 6.95838 29.3507 14.9254Z" stroke="#3377D1"/>
<path d="M19.0542 15.7061C19.0065 15.6731 18.9674 15.6292 18.9401 15.578C18.913 15.5269 18.8984 15.4699 18.8975 15.412V8.16746C18.8975 7.44795 18.6115 6.75791 18.1021 6.24913C17.5927 5.74036 16.9019 5.45454 16.1815 5.45454C15.4612 5.45454 14.7704 5.74036 14.2609 6.24913C13.7516 6.75791 13.4654 7.44795 13.4654 8.16746V15.412C13.4663 15.4664 13.4542 15.5202 13.4301 15.569C13.406 15.6179 13.3707 15.6603 13.327 15.6929C12.4939 16.294 11.8713 17.1416 11.5475 18.1158C11.2236 19.0901 11.215 20.1413 11.5227 21.1207C11.8304 22.1002 12.439 22.9579 13.262 23.5726C14.0851 24.1874 15.081 24.5276 16.1085 24.5455H16.1815C16.8239 24.5453 17.4599 24.4189 18.0532 24.1733C18.6466 23.9279 19.1858 23.5679 19.6399 23.1142C20.094 22.6605 20.4543 22.1219 20.7 21.5291C20.9457 20.9365 21.0721 20.3011 21.0721 19.6595C21.0706 18.8885 20.8871 18.1287 20.5365 17.4419C20.1859 16.7549 19.6781 16.1603 19.0542 15.7061ZM18.9413 22.4581C18.5553 22.8387 18.0945 23.1353 17.5882 23.3295C17.0817 23.5237 16.5406 23.6112 15.9989 23.5864C15.457 23.5617 14.9261 23.4252 14.4395 23.1858C13.953 22.9462 13.5214 22.6087 13.1718 22.1945C12.8221 21.7803 12.562 21.2984 12.4078 20.779C12.2536 20.2595 12.2086 19.7138 12.2757 19.1763C12.3428 18.6386 12.5205 18.1207 12.7977 17.655C13.0748 17.1892 13.4454 16.7858 13.8862 16.47C14.053 16.3486 14.1886 16.1894 14.2819 16.0054C14.3752 15.8216 14.4236 15.6181 14.423 15.412V8.16746C14.423 7.93693 14.4685 7.70866 14.5568 7.49569C14.645 7.28272 14.7746 7.08919 14.9377 6.92619C15.1009 6.76318 15.2947 6.63388 15.508 6.54566C15.7211 6.45744 15.9496 6.41205 16.1805 6.41205C16.4112 6.41205 16.6398 6.45744 16.853 6.54566C17.0662 6.63388 17.26 6.76318 17.4232 6.92619C17.5864 7.08919 17.7158 7.28272 17.8042 7.49569C17.8924 7.70866 17.938 7.93693 17.938 8.16746V15.412C17.9395 15.6209 17.99 15.8265 18.0859 16.0122C18.1818 16.1978 18.3202 16.3583 18.4897 16.4806C18.9914 16.846 19.3996 17.3242 19.6816 17.8766C19.9635 18.429 20.1112 19.04 20.1124 19.6601C20.1142 20.181 20.0115 20.6969 19.8104 21.1775C19.6092 21.6581 19.3137 22.0935 18.9413 22.4581Z" fill="#3377D1"/>
<path d="M16.82 17.1945V11.6256H15.5419V17.1945C14.9377 17.35 14.411 17.7202 14.0606 18.2358C13.7103 18.7514 13.5602 19.3769 13.6385 19.9951C13.717 20.6133 14.0185 21.1818 14.4866 21.5937C14.9546 22.0058 15.557 22.2331 16.1809 22.2331C16.8049 22.2331 17.4074 22.0058 17.8754 21.5937C18.3434 21.1818 18.6449 20.6133 18.7234 19.9951C18.8018 19.3769 18.6517 18.7514 18.3012 18.2358C17.9509 17.7202 17.4243 17.35 16.82 17.1945Z" fill="#3377D1"/>
<path d="M22.9904 6.45354H20.4517V7.30466H22.9904V6.45354Z" fill="#3377D1"/>
<path d="M24.5455 8.6648H20.4517V9.5159H24.5455V8.6648Z" fill="#3377D1"/>
<path d="M22.9904 10.8761H20.4517V11.7272H22.9904V10.8761Z" fill="#3377D1"/>
<path d="M24.5455 13.0869H20.4517V13.938H24.5455V13.0869Z" fill="#3377D1"/>
<path d="M12.0349 11.3017C12.0349 10.8963 11.3841 10.6234 11.2361 10.2708C11.0843 9.90532 11.3426 9.25422 11.0699 8.97921C10.7972 8.70419 10.1422 8.96431 9.77632 8.81324C9.42376 8.66696 9.15003 8.01532 8.74474 8.01532C8.33945 8.01532 8.06572 8.66536 7.71263 8.81324C7.34729 8.96431 6.69489 8.70366 6.41955 8.97921C6.14422 9.25476 6.40464 9.90532 6.25339 10.2708C6.10694 10.6234 5.45454 10.8963 5.45454 11.3017C5.45454 11.707 6.10534 11.9799 6.25339 12.332C6.40677 12.6975 6.14581 13.3481 6.42169 13.6236C6.69755 13.8991 7.34941 13.6385 7.71476 13.7895C8.06784 13.9358 8.34105 14.5875 8.74687 14.5875C9.15269 14.5875 9.42589 13.9375 9.77844 13.7895C10.1443 13.6385 10.7962 13.8991 11.0721 13.6236C11.3479 13.3481 11.0864 12.6975 11.2382 12.332C11.3841 11.9799 12.0349 11.7065 12.0349 11.3017ZM8.74687 12.665C8.47677 12.665 8.21274 12.585 7.98818 12.4351C7.76362 12.2852 7.58859 12.0722 7.48526 11.823C7.38192 11.5737 7.35491 11.2994 7.40764 11.0349C7.46037 10.7703 7.59048 10.5272 7.78151 10.3365C7.97253 10.1458 8.21588 10.0159 8.48079 9.96338C8.74572 9.91082 9.02029 9.9379 9.26979 10.0412C9.5193 10.1445 9.73252 10.3194 9.8825 10.5438C10.0325 10.7681 10.1125 11.0319 10.1124 11.3017C10.1124 11.4808 10.077 11.6581 10.0084 11.8235C9.93979 11.989 9.83919 12.1393 9.71239 12.2659C9.58558 12.3925 9.43505 12.4929 9.26939 12.5614C9.10372 12.6299 8.92616 12.6651 8.74687 12.665Z" fill="#3377D1"/>
</g>
<defs>
<clipPath id="clip0_1_44">
<rect width="30" height="30" fill="white"/>
</clipPath>
</defs>
</svg>
