<svg width="30" height="30" viewBox="0 0 30 30" fill="none" xmlns="http://www.w3.org/2000/svg">
<g clip-path="url(#clip0_2_2)">
<path d="M29.3726 15.074C29.3726 23.0411 22.9141 29.4995 14.9472 29.4995C6.98021 29.4995 0.52182 23.0411 0.52182 15.074C0.52182 7.10712 6.98021 0.648735 14.9472 0.648735C22.9141 0.648735 29.3726 7.10712 29.3726 15.074Z" stroke="#3377D1"/>
<path d="M19.2765 18.703C20.0813 21.6499 17.9232 24.5455 15 24.5455C12.0643 24.5455 9.92074 21.6338 10.7239 18.703L8.85675 14.8047C7.02995 13.4332 7.0715 10.6151 8.94192 9.30364C9.48995 6.30988 12.0035 4.09092 15 4.09092C16.2046 4.0926 17.3825 4.45903 18.388 5.14496C19.3934 5.83088 20.1824 6.80623 20.6573 7.95049C20.6748 7.99156 20.6842 8.03578 20.685 8.08061C20.6858 8.12544 20.678 8.16999 20.6621 8.21172C20.6463 8.25345 20.6225 8.29151 20.5923 8.32372C20.5621 8.35592 20.5261 8.38166 20.4863 8.39942C20.4465 8.41719 20.4037 8.42666 20.3602 8.42724C20.3168 8.42784 20.2737 8.41956 20.2335 8.4029C20.1933 8.38624 20.1566 8.36151 20.1255 8.33014C20.0945 8.29877 20.0699 8.26137 20.0529 8.22011C19.6062 7.13938 18.8461 6.22846 17.8775 5.61283C16.909 4.99719 15.7796 4.70716 14.6449 4.78268C13.5102 4.8582 12.426 5.29556 11.5419 6.03448C10.6577 6.77342 10.017 7.77758 9.70802 8.90858C10.0471 8.78768 10.4034 8.72601 10.7621 8.72615C10.8494 8.72615 10.9332 8.76199 10.9949 8.82579C11.0566 8.8896 11.0913 8.97612 11.0913 9.06635C11.0913 9.15658 11.0566 9.24311 10.9949 9.30691C10.9332 9.37071 10.8494 9.40655 10.7621 9.40655C10.1518 9.40652 9.56112 9.62907 9.09398 10.035C8.62685 10.4409 8.31327 11.0042 8.20847 11.6256C8.10366 12.247 8.21436 12.8867 8.52107 13.432C8.82777 13.9773 9.31081 14.3933 9.88512 14.6067C10.4594 14.8201 11.0882 14.8173 11.6606 14.5985C12.2331 14.38 12.7125 13.9595 13.0145 13.4114C13.3165 12.8633 13.4217 12.2226 13.3116 11.6022C13.2014 10.9817 12.883 10.4214 12.4124 10.0198C12.3791 9.99128 12.3516 9.9563 12.3313 9.91681C12.3111 9.87732 12.2986 9.83411 12.2945 9.78962C12.2905 9.74514 12.2949 9.70027 12.3076 9.65756C12.3203 9.61485 12.3411 9.57515 12.3686 9.54072C12.3962 9.50629 12.43 9.47782 12.4682 9.4569C12.5064 9.43599 12.5482 9.42306 12.5913 9.41886C12.6343 9.41465 12.6777 9.41925 12.7191 9.43239C12.7604 9.44552 12.7988 9.46695 12.8321 9.49543C13.2018 9.81023 13.4994 10.2058 13.7035 10.6537C13.9076 11.1015 14.0131 11.5906 14.0126 12.0856C14.0126 14.3292 11.9142 15.9495 9.83022 15.3035L11.0501 17.8503C12.3943 15.1636 15.8171 14.5334 17.9714 16.538C18.0048 16.5675 18.0319 16.6036 18.0515 16.6443C18.071 16.6848 18.0826 16.729 18.0855 16.7742C18.0882 16.8195 18.0824 16.8649 18.0679 16.9077C18.0536 16.9505 18.031 16.99 18.0016 17.0236C17.9723 17.0573 17.9367 17.0847 17.897 17.104C17.8574 17.1233 17.8143 17.1341 17.7705 17.136C17.7266 17.1379 17.6829 17.1307 17.6418 17.1147C17.6007 17.0989 17.5631 17.0748 17.5312 17.0437C17.0746 16.6193 16.5251 16.3162 15.9299 16.1603C15.3346 16.0045 14.7117 16.0005 14.1147 16.149C13.5178 16.2975 12.9648 16.5937 12.5033 17.0123C12.0418 17.431 11.6858 17.9594 11.4659 18.5519C11.2461 19.1444 11.169 19.7832 11.2413 20.4135C11.3136 21.0436 11.5331 21.6462 11.8809 22.1692C12.2288 22.692 12.6945 23.1198 13.2378 23.4151C13.7812 23.7106 14.386 23.865 15 23.8651C17.5489 23.8651 19.3807 21.2952 18.6104 18.7736C18.5876 18.699 18.5905 18.6187 18.6183 18.546C18.6273 18.5223 19.4321 16.845 19.4431 16.8213C19.4819 16.7404 19.5502 16.6788 19.6328 16.6499C19.7156 16.621 19.806 16.6272 19.8843 16.6673C19.9624 16.7073 20.0221 16.7779 20.0501 16.8633C20.0779 16.9488 20.0719 17.0423 20.0332 17.1232L19.2765 18.703ZM15.9874 12.0856C15.9874 14.6486 18.6668 16.2641 20.8211 15.0199C20.8975 14.9759 20.9538 14.9022 20.9776 14.8152C21.0015 14.7282 20.991 14.6351 20.9484 14.5561C20.9058 14.4772 20.8346 14.419 20.7505 14.3943C20.6663 14.3696 20.5762 14.3805 20.4997 14.4245C18.7853 15.4166 16.6458 14.1319 16.6458 12.0856C16.6464 11.3753 16.9199 10.6944 17.4059 10.1921C17.8917 9.68985 18.5506 9.40734 19.2379 9.40655C21.2054 9.40655 22.4512 11.5936 21.5148 13.3669C21.4729 13.4461 21.4634 13.5393 21.488 13.6258C21.5126 13.7125 21.5696 13.7853 21.6462 13.8285C21.7229 13.8717 21.813 13.8817 21.8967 13.8562C21.9804 13.8307 22.0511 13.7719 22.0928 13.6927C23.2675 11.4677 21.7065 8.72615 19.2379 8.72615C18.3761 8.72716 17.5499 9.08143 16.9406 9.71124C16.3312 10.341 15.9885 11.1949 15.9874 12.0856ZM9.9804 19.9527C9.9804 20.043 9.94572 20.1296 9.88399 20.1933C9.82226 20.2571 9.73854 20.293 9.65124 20.293H8.91065V22.0365C8.91065 22.3975 8.77193 22.7435 8.52501 22.9987C8.2781 23.254 7.94322 23.3973 7.59403 23.3973H6.77115C6.42196 23.3973 6.08708 23.254 5.84017 22.9987C5.59325 22.7435 5.45453 22.3975 5.45453 22.0365V17.8691C5.45453 17.5081 5.59325 17.162 5.84017 16.9068C6.08708 16.6516 6.42196 16.5082 6.77115 16.5082H7.59403C7.94322 16.5082 8.2781 16.6516 8.52501 16.9068C8.77193 17.162 8.91065 17.5081 8.91065 17.8691V19.6125H9.65124C9.73854 19.6125 9.82226 19.6484 9.88399 19.7122C9.94572 19.776 9.9804 19.8626 9.9804 19.9527ZM8.25234 17.8691C8.25234 17.6885 8.18299 17.5155 8.05952 17.3879C7.93607 17.2604 7.76862 17.1886 7.59403 17.1886H6.77115C6.59656 17.1886 6.42911 17.2604 6.30566 17.3879C6.18219 17.5155 6.11284 17.6885 6.11284 17.8691V22.0365C6.11284 22.2169 6.18219 22.39 6.30566 22.5176C6.42911 22.6452 6.59656 22.717 6.77115 22.717H7.59403C7.76862 22.717 7.93607 22.6452 8.05952 22.5176C8.18299 22.39 8.25234 22.2169 8.25234 22.0365V17.8691ZM23.2289 16.5082H22.4059C22.0568 16.5082 21.7219 16.6516 21.475 16.9068C21.228 17.162 21.0893 17.5081 21.0893 17.8691V19.6125H20.3487C20.2615 19.6125 20.1777 19.6484 20.116 19.7122C20.0543 19.776 20.0195 19.8626 20.0195 19.9527C20.0195 20.043 20.0543 20.1296 20.116 20.1933C20.1777 20.2571 20.2615 20.293 20.3487 20.293H21.4185C21.5058 20.293 21.5895 20.2571 21.6513 20.1933C21.7129 20.1296 21.7477 20.043 21.7477 19.9527V17.8691C21.7477 17.6885 21.817 17.5155 21.9405 17.3879C22.0639 17.2604 22.2314 17.1886 22.4059 17.1886H23.2289C23.4034 17.1886 23.5709 17.2604 23.6943 17.3879C23.8178 17.5155 23.8871 17.6885 23.8871 17.8691V22.0365C23.8871 22.2169 23.8178 22.39 23.6943 22.5176C23.5709 22.6452 23.4034 22.717 23.2289 22.717H22.4059C22.2314 22.717 22.0639 22.6452 21.9405 22.5176C21.817 22.39 21.7477 22.2169 21.7477 22.0365V21.3701C21.7477 21.28 21.7129 21.1934 21.6513 21.1295C21.5895 21.0657 21.5058 21.0299 21.4185 21.0299C21.3312 21.0299 21.2475 21.0657 21.1857 21.1295C21.1239 21.1934 21.0893 21.28 21.0893 21.3701V22.0365C21.0893 22.3975 21.228 22.7435 21.475 22.9987C21.7219 23.254 22.0568 23.3973 22.4059 23.3973H23.2289C23.5779 23.3973 23.9129 23.254 24.1598 22.9987C24.4068 22.7435 24.5454 22.3975 24.5454 22.0365V17.8691C24.5454 17.5081 24.4068 17.162 24.1598 16.9068C23.9129 16.6516 23.5779 16.5082 23.2289 16.5082ZM15.3292 18.2517C15.3292 18.1616 15.2944 18.075 15.2328 18.0112C15.171 17.9474 15.0873 17.9115 15 17.9115C14.9127 17.9115 14.829 17.9474 14.7672 18.0112C14.7055 18.075 14.6708 18.1616 14.6708 18.2517V18.677C14.6708 18.7672 14.7055 18.8538 14.7672 18.9176C14.829 18.9814 14.9127 19.0173 15 19.0173C15.0873 19.0173 15.171 18.9814 15.2328 18.9176C15.2944 18.8538 15.3292 18.7672 15.3292 18.677V18.2517ZM15 20.8883C14.9127 20.8883 14.829 20.9242 14.7672 20.988C14.7055 21.0518 14.6708 21.1383 14.6708 21.2285V21.6537C14.6708 21.744 14.7055 21.8306 14.7672 21.8943C14.829 21.9581 14.9127 21.994 15 21.994C15.0873 21.994 15.171 21.9581 15.2328 21.8943C15.2944 21.8306 15.3292 21.744 15.3292 21.6537V21.2285C15.3292 21.1383 15.2944 21.0518 15.2328 20.988C15.171 20.9242 15.0873 20.8883 15 20.8883ZM16.2344 19.6125C16.147 19.6125 16.0634 19.6484 16.0016 19.7122C15.9398 19.776 15.9052 19.8626 15.9052 19.9527C15.9052 20.043 15.9398 20.1296 16.0016 20.1933C16.0634 20.2571 16.147 20.293 16.2344 20.293H16.6458C16.733 20.293 16.8168 20.2571 16.8785 20.1933C16.9402 20.1296 16.975 20.043 16.975 19.9527C16.975 19.8626 16.9402 19.776 16.8785 19.7122C16.8168 19.6484 16.733 19.6125 16.6458 19.6125H16.2344ZM13.3542 19.6125C13.2669 19.6125 13.1832 19.6484 13.1215 19.7122C13.0597 19.776 13.0251 19.8626 13.0251 19.9527C13.0251 20.043 13.0597 20.1296 13.1215 20.1933C13.1832 20.2571 13.2669 20.293 13.3542 20.293H13.7656C13.8529 20.293 13.9366 20.2571 13.9984 20.1933C14.0602 20.1296 14.0948 20.043 14.0948 19.9527C14.0948 19.8626 14.0602 19.776 13.9984 19.7122C13.9366 19.6484 13.8529 19.6125 13.7656 19.6125H13.3542Z" fill="#3377D1"/>
</g>
<defs>
<clipPath id="clip0_2_2">
<rect width="30" height="30" fill="white"/>
</clipPath>
</defs>
</svg>
