<svg width="30" height="30" viewBox="0 0 22 22" fill="none"
     xmlns="http://www.w3.org/2000/svg">
    <path fillRule="evenodd" clipRule="evenodd"
          d="M21.9066 11.0543C21.9066 17.0993 17.0062 21.9996 10.9613 21.9996C4.91632 21.9996 0.0160065 17.0993 0.0160065 11.0543C0.0160065 5.00938 4.91632 0.10907 10.9613 0.10907C17.0062 0.10907 21.9066 5.00938 21.9066 11.0543Z"
          fill="#FFC246"/>
    <path
            d="M14.1361 13.7155C14.7263 15.8766 13.1437 18 11 18C8.84719 18 7.27521 15.8648 7.86417 13.7155L6.49495 10.8568C5.1553 9.85105 5.18577 7.78442 6.55741 6.82267C6.9593 4.62725 8.80254 3.00001 11 3.00001C11.8834 3.00124 12.7472 3.26996 13.4845 3.77297C14.2218 4.27598 14.8004 4.99124 15.1487 5.83036C15.1615 5.86048 15.1684 5.89291 15.169 5.92578C15.1696 5.95866 15.1639 5.99133 15.1522 6.02193C15.1406 6.05253 15.1232 6.08044 15.101 6.10406C15.0789 6.12768 15.0525 6.14655 15.0233 6.15958C14.9941 6.17261 14.9627 6.17955 14.9308 6.17998C14.899 6.18042 14.8674 6.17435 14.8379 6.16213C14.8084 6.14991 14.7815 6.13178 14.7587 6.10877C14.736 6.08577 14.7179 6.05834 14.7055 6.02808C14.3779 5.23555 13.8205 4.56754 13.1102 4.11608C12.3999 3.66461 11.5717 3.45192 10.7396 3.5073C9.90745 3.56268 9.11242 3.88341 8.46403 4.42529C7.81563 4.96718 7.34578 5.70356 7.11922 6.53296C7.36791 6.4443 7.62916 6.39908 7.89223 6.39918C7.95625 6.39918 8.01765 6.42546 8.06292 6.47225C8.10818 6.51904 8.13361 6.58249 8.13361 6.64866C8.13361 6.71483 8.10818 6.77828 8.06292 6.82507C8.01765 6.87186 7.95625 6.89814 7.89223 6.89814C7.44469 6.89812 7.01149 7.06132 6.66892 7.359C6.32636 7.65667 6.0964 8.06972 6.01955 8.52542C5.94269 8.98112 6.02387 9.45023 6.24879 9.85014C6.4737 10.25 6.82793 10.5551 7.24909 10.7116C7.67024 10.8681 8.13132 10.866 8.55111 10.7056C8.97091 10.5453 9.3225 10.237 9.54397 9.83502C9.76544 9.43306 9.84259 8.96322 9.76182 8.50825C9.68106 8.05327 9.44756 7.64234 9.10245 7.34783C9.07802 7.32694 9.05782 7.30129 9.04298 7.27233C9.02815 7.24337 9.01897 7.21168 9.01599 7.17906C9.01301 7.14644 9.01627 7.11353 9.02559 7.08221C9.03491 7.05089 9.05011 7.02178 9.07032 6.99653C9.09052 6.97128 9.11535 6.9504 9.14336 6.93506C9.17138 6.91973 9.20205 6.91025 9.23361 6.90717C9.26517 6.90408 9.29701 6.90745 9.32731 6.91709C9.35761 6.92672 9.38578 6.94243 9.41021 6.96332C9.68131 7.19417 9.89955 7.48424 10.0492 7.81268C10.1989 8.14111 10.2763 8.49975 10.2759 8.8628C10.2759 10.5081 8.73706 11.6963 7.20883 11.2226L8.10344 13.0902C9.08917 11.12 11.5992 10.6578 13.179 12.1279C13.2035 12.1495 13.2234 12.176 13.2378 12.2058C13.2521 12.2355 13.2606 12.2679 13.2627 12.3011C13.2647 12.3343 13.2604 12.3676 13.2498 12.399C13.2393 12.4304 13.2227 12.4593 13.2012 12.484C13.1797 12.5087 13.1536 12.5288 13.1245 12.5429C13.0954 12.5571 13.0638 12.565 13.0317 12.5664C12.9995 12.5678 12.9675 12.5625 12.9373 12.5508C12.9072 12.5392 12.8796 12.5215 12.8562 12.4987C12.5214 12.1875 12.1184 11.9652 11.6819 11.8509C11.2454 11.7366 10.7886 11.7337 10.3508 11.8426C9.91307 11.9515 9.50749 12.1687 9.16908 12.4757C8.83067 12.7827 8.56959 13.1702 8.40836 13.6047C8.24713 14.0392 8.19058 14.5077 8.2436 14.9699C8.29662 15.432 8.45761 15.8739 8.71268 16.2574C8.96776 16.6408 9.30927 16.9545 9.70775 17.1711C10.1062 17.3878 10.5497 17.501 11 17.5011C12.8692 17.5011 14.2125 15.6165 13.6476 13.7673C13.6309 13.7126 13.633 13.6537 13.6534 13.6004C13.66 13.583 14.2502 12.353 14.2583 12.3356C14.2867 12.2763 14.3368 12.2311 14.3974 12.2099C14.4581 12.1887 14.5244 12.1933 14.5818 12.2227C14.6391 12.252 14.6829 12.3038 14.7034 12.3664C14.7238 12.4291 14.7194 12.4977 14.691 12.557L14.1361 13.7155ZM11.7241 8.8628C11.7241 10.7423 13.689 11.927 15.2688 11.0146C15.3248 10.9823 15.3661 10.9283 15.3836 10.8645C15.4011 10.8007 15.3934 10.7324 15.3622 10.6745C15.3309 10.6166 15.2787 10.5739 15.217 10.5558C15.1553 10.5377 15.0892 10.5457 15.0331 10.578C13.7759 11.3055 12.2069 10.3634 12.2069 8.8628C12.2074 8.34191 12.4079 7.84253 12.7643 7.47421C13.1206 7.10589 13.6038 6.89872 14.1078 6.89814C15.5506 6.89814 16.4642 8.50199 15.7775 9.8024C15.7468 9.8605 15.7398 9.92881 15.7579 9.99229C15.7759 10.0558 15.8177 10.1092 15.8739 10.1409C15.9301 10.1726 15.9962 10.1799 16.0576 10.1612C16.119 10.1425 16.1708 10.0994 16.2014 10.0413C17.0628 8.40968 15.9181 6.39918 14.1078 6.39918C13.4758 6.39992 12.8699 6.65972 12.4231 7.12158C11.9762 7.58343 11.7249 8.20963 11.7241 8.8628ZM7.31896 14.632C7.31896 14.6982 7.29353 14.7617 7.24826 14.8084C7.20299 14.8552 7.1416 14.8815 7.07758 14.8815H6.53448V16.1601C6.53448 16.4248 6.43275 16.6786 6.25168 16.8657C6.07061 17.0529 5.82503 17.158 5.56896 17.158H4.96551C4.70944 17.158 4.46386 17.0529 4.28279 16.8657C4.10172 16.6786 3.99999 16.4248 3.99999 16.1601V13.104C3.99999 12.8393 4.10172 12.5855 4.28279 12.3983C4.46386 12.2112 4.70944 12.106 4.96551 12.106H5.56896C5.82503 12.106 6.07061 12.2112 6.25168 12.3983C6.43275 12.5855 6.53448 12.8393 6.53448 13.104V14.3825H7.07758C7.1416 14.3825 7.20299 14.4088 7.24826 14.4556C7.29353 14.5024 7.31896 14.5659 7.31896 14.632ZM6.05172 13.104C6.05172 12.9716 6.00086 12.8447 5.91032 12.7511C5.81979 12.6576 5.69699 12.605 5.56896 12.605H4.96551C4.83748 12.605 4.71468 12.6576 4.62415 12.7511C4.53361 12.8447 4.48275 12.9716 4.48275 13.104V16.1601C4.48275 16.2924 4.53361 16.4193 4.62415 16.5129C4.71468 16.6065 4.83748 16.6591 4.96551 16.6591H5.56896C5.69699 16.6591 5.81979 16.6065 5.91032 16.5129C6.00086 16.4193 6.05172 16.2924 6.05172 16.1601V13.104ZM17.0345 12.106H16.431C16.175 12.106 15.9294 12.2112 15.7483 12.3983C15.5672 12.5855 15.4655 12.8393 15.4655 13.104V14.3825H14.9224C14.8584 14.3825 14.797 14.4088 14.7517 14.4556C14.7065 14.5024 14.681 14.5659 14.681 14.632C14.681 14.6982 14.7065 14.7617 14.7517 14.8084C14.797 14.8552 14.8584 14.8815 14.9224 14.8815H15.7069C15.7709 14.8815 15.8323 14.8552 15.8776 14.8084C15.9228 14.7617 15.9483 14.6982 15.9483 14.632V13.104C15.9483 12.9716 15.9991 12.8447 16.0897 12.7511C16.1802 12.6576 16.303 12.605 16.431 12.605H17.0345C17.1625 12.605 17.2853 12.6576 17.3758 12.7511C17.4664 12.8447 17.5172 12.9716 17.5172 13.104V16.1601C17.5172 16.2924 17.4664 16.4193 17.3758 16.5129C17.2853 16.6065 17.1625 16.6591 17.0345 16.6591H16.431C16.303 16.6591 16.1802 16.6065 16.0897 16.5129C15.9991 16.4193 15.9483 16.2924 15.9483 16.1601V15.6714C15.9483 15.6053 15.9228 15.5418 15.8776 15.495C15.8323 15.4482 15.7709 15.4219 15.7069 15.4219C15.6429 15.4219 15.5815 15.4482 15.5362 15.495C15.4909 15.5418 15.4655 15.6053 15.4655 15.6714V16.1601C15.4655 16.4248 15.5672 16.6786 15.7483 16.8657C15.9294 17.0529 16.175 17.158 16.431 17.158H17.0345C17.2905 17.158 17.5361 17.0529 17.7172 16.8657C17.8983 16.6786 18 16.4248 18 16.1601V13.104C18 12.8393 17.8983 12.5855 17.7172 12.3983C17.5361 12.2112 17.2905 12.106 17.0345 12.106ZM11.2414 13.3846C11.2414 13.3185 11.2159 13.255 11.1707 13.2082C11.1254 13.1614 11.064 13.1351 11 13.1351C10.936 13.1351 10.8746 13.1614 10.8293 13.2082C10.784 13.255 10.7586 13.3185 10.7586 13.3846V13.6965C10.7586 13.7626 10.784 13.8261 10.8293 13.8729C10.8746 13.9197 10.936 13.946 11 13.946C11.064 13.946 11.1254 13.9197 11.1707 13.8729C11.2159 13.8261 11.2414 13.7626 11.2414 13.6965V13.3846ZM11 15.3181C10.936 15.3181 10.8746 15.3444 10.8293 15.3912C10.784 15.438 10.7586 15.5014 10.7586 15.5676V15.8794C10.7586 15.9456 10.784 16.0091 10.8293 16.0558C10.8746 16.1026 10.936 16.1289 11 16.1289C11.064 16.1289 11.1254 16.1026 11.1707 16.0558C11.2159 16.0091 11.2414 15.9456 11.2414 15.8794V15.5676C11.2414 15.5014 11.2159 15.438 11.1707 15.3912C11.1254 15.3444 11.064 15.3181 11 15.3181ZM11.9052 14.3825C11.8411 14.3825 11.7798 14.4088 11.7345 14.4556C11.6892 14.5024 11.6638 14.5659 11.6638 14.632C11.6638 14.6982 11.6892 14.7617 11.7345 14.8084C11.7798 14.8552 11.8411 14.8815 11.9052 14.8815H12.2069C12.2709 14.8815 12.3323 14.8552 12.3776 14.8084C12.4228 14.7617 12.4483 14.6982 12.4483 14.632C12.4483 14.5659 12.4228 14.5024 12.3776 14.4556C12.3323 14.4088 12.2709 14.3825 12.2069 14.3825H11.9052ZM9.7931 14.3825C9.72908 14.3825 9.66768 14.4088 9.62242 14.4556C9.57715 14.5024 9.55172 14.5659 9.55172 14.632C9.55172 14.6982 9.57715 14.7617 9.62242 14.8084C9.66768 14.8552 9.72908 14.8815 9.7931 14.8815H10.0948C10.1588 14.8815 10.2202 14.8552 10.2655 14.8084C10.3108 14.7617 10.3362 14.6982 10.3362 14.632C10.3362 14.5659 10.3108 14.5024 10.2655 14.4556C10.2202 14.4088 10.1588 14.3825 10.0948 14.3825H9.7931Z"
            fill="white"/>
</svg>