<svg width="22" height="22" viewBox="0 0 22 22" fill="none" xmlns="http://www.w3.org/2000/svg">
<path d="M22 11C22 17.0751 17.0751 22 11 22C4.92487 22 0 17.0751 0 11C0 4.92487 4.92487 0 11 0C17.0751 0 22 4.92487 22 11Z" fill="#696969"/>
<path d="M22 11C22 17.0751 17.0751 22 11 22C4.92487 22 0 17.0751 0 11C0 4.92487 4.92487 0 11 0C17.0751 0 22 4.92487 22 11Z" fill="#696969"/>
<path d="M16.5594 8.57171H15.169L11.9701 7.78029C11.2767 7.60947 10.5523 7.60947 9.85889 7.78029L6.65993 8.57171H5.26955C4.95452 8.57132 4.6425 8.63304 4.35134 8.75334C4.06018 8.87363 3.79558 9.05013 3.57268 9.27276C3.34979 9.49539 3.17296 9.75977 3.05231 10.0508C2.93167 10.3418 2.86957 10.6537 2.86957 10.9688C2.86957 11.2838 2.93167 11.5957 3.05231 11.8868C3.17296 12.1778 3.34979 12.4422 3.57268 12.6648C3.79558 12.8874 4.06018 13.0639 4.35134 13.1842C4.6425 13.3045 4.95452 13.3662 5.26955 13.3658H6.34401C7.53785 14.3173 9.18873 14.8594 10.9145 14.8594C12.6402 14.8594 14.2911 14.3173 15.4849 13.3658H16.5594C16.8744 13.3662 17.1864 13.3045 17.4776 13.1842C17.7687 13.0639 18.0333 12.8874 18.2562 12.6648C18.4791 12.4422 18.656 12.1778 18.7766 11.8868C18.8973 11.5957 18.9594 11.2838 18.9594 10.9688C18.9594 10.6537 18.8973 10.3418 18.7766 10.0508C18.656 9.75977 18.4791 9.49539 18.2562 9.27276C18.0333 9.05013 17.7687 8.87363 17.4776 8.75334C17.1864 8.63304 16.8744 8.57132 16.5594 8.57171ZM16.5594 12.6559H15.7359V10.6114L11.9268 9.66905C11.2022 9.48978 10.4448 9.48978 9.72023 9.66905L6.09306 10.5664V12.6559H5.26958C5.04781 12.6562 4.82816 12.6128 4.62318 12.5282C4.41821 12.4436 4.23193 12.3193 4.075 12.1626C3.91808 12.0059 3.79358 11.8198 3.70864 11.615C3.6237 11.4101 3.57998 11.1905 3.57998 10.9688C3.57998 10.747 3.6237 10.5274 3.70864 10.3226C3.79358 10.1177 3.91808 9.93161 4.075 9.77491C4.23193 9.61822 4.41821 9.49399 4.62318 9.40935C4.82816 9.32471 5.04781 9.2813 5.26958 9.28163H6.09306V9.8351L9.54975 8.97991C10.3863 8.77293 11.2607 8.77293 12.0973 8.97991L15.7359 9.88008V9.28162H16.5594C16.7811 9.2813 17.0008 9.3247 17.2058 9.40935C17.4107 9.49399 17.597 9.61821 17.7539 9.77491C17.9109 9.93161 18.0354 10.1177 18.1203 10.3226C18.2052 10.5274 18.249 10.747 18.249 10.9688C18.249 11.1905 18.2052 11.4101 18.1203 11.615C18.0354 11.8198 17.9109 12.0059 17.7539 12.1626C17.597 12.3193 17.4107 12.4436 17.2058 12.5282C17.0008 12.6128 16.7811 12.6562 16.5594 12.6559Z" fill="white"/>
</svg>
