<svg width="30" height="30" viewBox="0 0 30 30" fill="none" xmlns="http://www.w3.org/2000/svg">
<g clip-path="url(#clip0_1_40)">
<path d="M29.5 15C29.5 23.0081 23.0081 29.5 15 29.5C6.99188 29.5 0.5 23.0081 0.5 15C0.5 6.99187 6.99187 0.5 15 0.5C23.0081 0.5 29.5 6.99188 29.5 15Z" stroke="#3377D1"/>
<path d="M22.581 11.6887H20.685L16.3229 10.6095C15.3773 10.3765 14.3895 10.3765 13.4439 10.6095L9.08172 11.6887H7.18575C6.75616 11.6882 6.33068 11.7723 5.93364 11.9364C5.53661 12.1004 5.17579 12.3411 4.87183 12.6447C4.56789 12.9483 4.32676 13.3088 4.16224 13.7056C3.99773 14.1025 3.91305 14.5278 3.91305 14.9575C3.91305 15.387 3.99773 15.8123 4.16224 16.2093C4.32676 16.6061 4.56789 16.9666 4.87183 17.2702C5.17579 17.5737 5.53661 17.8144 5.93364 17.9785C6.33068 18.1425 6.75616 18.2266 7.18575 18.2261H8.65092C10.2789 19.5236 12.5301 20.2628 14.8834 20.2628C17.2366 20.2628 19.4879 19.5236 21.1158 18.2261H22.581C23.0105 18.2266 23.436 18.1425 23.8331 17.9785C24.23 17.8144 24.5909 17.5737 24.8948 17.2702C25.1988 16.9666 25.44 16.6061 25.6045 16.2093C25.769 15.8123 25.8537 15.387 25.8537 14.9575C25.8537 14.5278 25.769 14.1025 25.6045 13.7056C25.44 13.3088 25.1988 12.9483 24.8948 12.6447C24.5909 12.3411 24.23 12.1004 23.8331 11.9364C23.436 11.7723 23.0105 11.6882 22.581 11.6887ZM22.581 17.258H21.458V14.4701L16.2638 13.1851C15.2757 12.9406 14.2429 12.9406 13.2549 13.1851L8.30872 14.4087V17.258H7.18579C6.88337 17.2585 6.58385 17.1993 6.30433 17.0839C6.02483 16.9685 5.77081 16.799 5.55682 16.5854C5.34283 16.3717 5.17306 16.1179 5.05723 15.8386C4.94141 15.5592 4.88179 15.2598 4.88179 14.9575C4.88179 14.655 4.94141 14.3555 5.05723 14.0763C5.17306 13.7969 5.34283 13.5431 5.55682 13.3294C5.77081 13.1158 6.02483 12.9463 6.30433 12.8309C6.58385 12.7155 6.88337 12.6563 7.18579 12.6568H8.30872V13.4115L13.0224 12.2453C14.1631 11.9631 15.3555 11.9631 16.4963 12.2453L21.458 13.4728V12.6568H22.581C22.8833 12.6563 23.1829 12.7155 23.4625 12.8309C23.7419 12.9463 23.9959 13.1157 24.2099 13.3294C24.424 13.5431 24.5937 13.7969 24.7095 14.0763C24.8253 14.3555 24.885 14.655 24.885 14.9575C24.885 15.2598 24.8253 15.5592 24.7095 15.8386C24.5937 16.1179 24.424 16.3717 24.2099 16.5854C23.9959 16.799 23.7419 16.9685 23.4625 17.0839C23.1829 17.1993 22.8833 17.2585 22.581 17.258Z" fill="#3377D1"/>
</g>
<defs>
<clipPath id="clip0_1_40">
<rect width="30" height="30" fill="white"/>
</clipPath>
</defs>
</svg>
