<svg xmlns="http://www.w3.org/2000/svg" width="116" height="240" viewBox="0 0 116 240" fill="none">
  <path d="M2 75.5C2 72.272 8.32021 66 12.5 66H105.5C109.68 66 113 74.272 113 77.5V166C113 169.034 96.6798 179 92.5 179H21.5C17.3202 179 2 169.228 2 166V75.5Z" fill="#FF0000"/>
  <path d="M113.15 70.3C113.12 70.25 113.1 70.2 113.07 70.16C112.92 69.92 97.88 46.14 95.97 35.64C93.99 24.78 90.01 1.89 89.97 1.66C89.8899 1.19553 89.6483 0.77429 89.2879 0.47058C88.9274 0.16687 88.4713 0.000209306 88 0H28C27.5287 0.000209306 27.0726 0.16687 26.7121 0.47058C26.3517 0.77429 26.1101 1.19553 26.03 1.66C25.99 1.89 22.01 24.78 20.03 35.64C18.12 46.13 3.08001 69.92 2.93001 70.16C2.90001 70.2 2.88 70.25 2.85 70.3C0.986887 73.192 -0.00265214 76.5599 5.33858e-06 80V160C-0.00265214 163.44 0.986887 166.808 2.85 169.7C2.88 169.75 2.90001 169.8 2.93001 169.84C3.08001 170.08 18.12 193.86 20.03 204.36C22.01 215.22 25.99 238.11 26.03 238.34C26.1101 238.804 26.3517 239.226 26.7121 239.529C27.0726 239.833 27.5287 240 28 240H88C88.4713 240 88.9274 239.833 89.2879 239.529C89.6483 239.226 89.8899 238.804 89.97 238.34C90.01 238.11 93.99 215.22 95.97 204.36C97.88 193.87 112.92 170.08 113.07 169.84C113.1 169.8 113.12 169.75 113.15 169.7C115.013 166.808 116.003 163.44 116 160V80C116.003 76.5599 115.013 73.192 113.15 70.3ZM18 174C14.2885 173.995 10.7305 172.518 8.10606 169.894C5.48164 167.27 4.00503 163.711 4.00001 160V80C4.00503 76.2885 5.48164 72.7305 8.10606 70.1061C10.7305 67.4816 14.2885 66.005 18 66H98C101.711 66.005 105.27 67.4816 107.894 70.1061C110.518 72.7305 111.995 76.2885 112 80V160C111.995 163.711 110.518 167.27 107.894 169.894C105.27 172.518 101.711 173.995 98 174H18Z" fill="black"/>
  <path d="M88 97.9999H85.64C87.6134 94.937 88.3854 91.2529 87.8077 87.6554C87.2299 84.0579 85.3432 80.8008 82.51 78.5099C79.5305 76.1274 75.7739 74.9335 71.9656 75.1588C68.1574 75.3841 64.5677 77.0127 61.89 79.7299L58 83.5499L54.11 79.7299C51.4322 77.0129 47.8425 75.3844 44.0343 75.1591C40.2262 74.9338 36.4695 76.1276 33.49 78.5099C30.6568 80.8008 28.7701 84.0579 28.1923 87.6554C27.6146 91.2529 28.3866 94.937 30.36 97.9999H28C27.4696 97.9999 26.9609 98.2106 26.5858 98.5857C26.2107 98.9607 26 99.4694 26 99.9999C26 100.53 26.2107 101.039 26.5858 101.414C26.9609 101.789 27.4696 102 28 102H33.89L53.79 121.58C54.917 122.676 56.4275 123.29 58 123.29C59.5725 123.29 61.083 122.676 62.21 121.58L82.11 102H88C88.5304 102 89.0391 101.789 89.4142 101.414C89.7893 101.039 90 100.53 90 99.9999C90 99.4694 89.7893 98.9607 89.4142 98.5857C89.0391 98.2106 88.5304 97.9999 88 97.9999ZM35.25 97.7299C33.7144 96.2124 32.6668 94.271 32.2416 92.1544C31.8164 90.0378 32.0328 87.8425 32.8632 85.8497C33.6937 83.8569 35.1002 82.1575 36.9026 80.9692C38.705 79.7809 40.8212 79.1578 42.98 79.1799C46.0943 79.1808 49.0845 80.4013 51.31 82.5799L55.2 86.3999C55.9465 87.1352 56.9522 87.5473 58 87.5473C59.0478 87.5473 60.0535 87.1352 60.8 86.3999L61.48 85.7299L64.69 82.5799C66.6818 80.5849 69.3333 79.3855 72.1467 79.2069C74.9601 79.0283 77.7419 79.8828 79.97 81.6099C81.1596 82.5649 82.1329 83.7615 82.8256 85.1207C83.5183 86.4799 83.9146 87.9706 83.9883 89.4943C84.0621 91.018 83.8115 92.5401 83.2533 93.9597C82.6951 95.3794 81.8418 96.6645 80.75 97.7299L80.48 97.9999H72C71.7375 97.9991 71.4775 98.0509 71.2353 98.1522C70.9932 98.2536 70.7737 98.4024 70.59 98.5899L69.08 100.09L65.94 87.5099C65.8376 87.1005 65.6084 86.7339 65.2851 86.4627C64.9618 86.1915 64.561 86.0295 64.14 85.9999C63.8225 85.9828 63.5054 86.0399 63.2138 86.1666C62.9222 86.2933 62.6642 86.4861 62.46 86.7299C62.3268 86.8891 62.2189 87.0679 62.14 87.2599L58.65 95.9999H56C55.5543 95.9983 55.121 96.1462 54.7693 96.4199C54.4176 96.6937 54.1678 97.0774 54.06 97.5099L53.5 99.7499L49.84 91.2099C49.6821 90.8433 49.4183 90.5324 49.0823 90.3171C48.7463 90.1017 48.3536 89.9919 47.9546 90.0015C47.5556 90.0112 47.1687 90.14 46.8435 90.3714C46.5184 90.6028 46.2699 90.9261 46.13 91.2999L43.61 97.9999H35.52L35.25 97.7299ZM59.4 118.72C59.0279 119.09 58.5246 119.297 58 119.297C57.4754 119.297 56.9721 119.09 56.6 118.72L39.59 102H45C45.4069 101.999 45.804 101.874 46.1381 101.642C46.4722 101.41 46.7276 101.081 46.87 100.7L48.12 97.3699L52.16 106.79C52.3146 107.15 52.5714 107.456 52.8985 107.671C53.2255 107.886 53.6085 108 54 108C54.0535 108.002 54.1071 107.998 54.16 107.99C54.5764 107.958 54.9722 107.796 55.2916 107.527C55.611 107.257 55.8378 106.895 55.94 106.49L57.56 99.9999H60C60.4002 99.9989 60.7911 99.8785 61.1225 99.654C61.4538 99.4295 61.7107 99.1112 61.86 98.7399L63.56 94.4899L66.06 104.49C66.1458 104.833 66.3213 105.147 66.5684 105.4C66.8155 105.652 67.1254 105.835 67.4663 105.928C67.8071 106.022 68.1668 106.023 68.5083 105.932C68.8499 105.841 69.1611 105.661 69.41 105.41L72.83 102H76.41L59.4 118.72Z" fill="black"/>
  <path d="M86 146H30C29.4701 146.002 28.9623 146.213 28.5875 146.588C28.2128 146.962 28.0016 147.47 28 148V154C28.0016 154.53 28.2128 155.038 28.5875 155.412C28.9623 155.787 29.4701 155.998 30 156H86C86.5299 155.998 87.0377 155.787 87.4125 155.412C87.7872 155.038 87.9984 154.53 88 154V148C87.9984 147.47 87.7872 146.962 87.4125 146.588C87.0377 146.213 86.5299 146.002 86 146ZM84 152H80V150H84V152Z" fill="black"/>
  <path d="M86 132H30C29.4701 132.002 28.9623 132.213 28.5875 132.588C28.2128 132.962 28.0016 133.47 28 134V140C28.0016 140.53 28.2128 141.038 28.5875 141.412C28.9623 141.787 29.4701 141.998 30 142H86C86.5299 141.998 87.0377 141.787 87.4125 141.412C87.7872 141.038 87.9984 140.53 88 140V134C87.9984 133.47 87.7872 132.962 87.4125 132.588C87.0377 132.213 86.5299 132.002 86 132ZM84 138H72V136H84V138Z" fill="black"/>
  <path d="M72 168C73.1046 168 74 167.105 74 166C74 164.895 73.1046 164 72 164C70.8954 164 70 164.895 70 166C70 167.105 70.8954 168 72 168Z" fill="black"/>
  <path d="M58 168C59.1046 168 60 167.105 60 166C60 164.895 59.1046 164 58 164C56.8954 164 56 164.895 56 166C56 167.105 56.8954 168 58 168Z" fill="black"/>
  <path d="M44 168C45.1046 168 46 167.105 46 166C46 164.895 45.1046 164 44 164C42.8954 164 42 164.895 42 166C42 167.105 42.8954 168 44 168Z" fill="black"/>
</svg>